<?xml version="1.0" encoding="utf-8"?>
<!DOCTYPE svg PUBLIC "-//W3C//DTD SVG 1.1//EN" "http://www.w3.org/Graphics/SVG/1.1/DTD/svg11.dtd" [
	<!ENTITY ns_svg "http://www.w3.org/2000/svg">
	<!ENTITY ns_xlink "http://www.w3.org/1999/xlink">
]>
<svg xmlns="http://www.w3.org/2000/svg" xmlns:xlink="http://www.w3.org/1999/xlink" xml:space="preserve" width="396" height="468" overflow="visible">
  <defs>
    <path id="a" d="M0 0h396v468H0z"/>
  </defs>
  <clipPath id="b">
    <use xlink:href="#a"/>
  </clipPath>
  <path fill="#FFF" fill-rule="evenodd" d="M0 0h396v468H0z" clip-path="url(#b)" clip-rule="evenodd"/>
  <path fill="#EAE8D0" fill-rule="evenodd" d="M0 0h396v312H0V0zm0 0" clip-path="url(#b)" clip-rule="evenodd"/>
  <path fill="#FF695B" fill-rule="evenodd" d="M0 312h396v156H0z" clip-rule="evenodd"/>
  <path fill="#1A1A1A" d="M33.625 30.095V41.72h12.25V30.095h6.688v30.344h-6.688V47.345h-12.25v13.094h-6.688V30.095h6.688z"/>
  <g fill="#1A1A1A">
    <path d="M63.603 55.177c.907.883 2.21 1.324 3.91 1.324 1.218 0 2.267-.304 3.145-.913.878-.608 1.417-1.252 1.615-1.931h5.312c-.85 2.632-2.153 4.514-3.91 5.646s-3.881 1.698-6.375 1.698c-1.729 0-3.287-.276-4.675-.829-1.388-.553-2.563-1.339-3.526-2.359s-1.707-2.239-2.23-3.656c-.524-1.417-.786-2.976-.786-4.676 0-1.644.269-3.174.807-4.591s1.302-2.643 2.293-3.677c.991-1.034 2.173-1.849 3.547-2.444s2.897-.893 4.569-.893c1.87 0 3.499.361 4.887 1.083 1.388.722 2.529 1.691 3.421 2.908s1.537 2.604 1.934 4.16c.396 1.557.539 3.184.425 4.881H62.115c.085 1.964.581 3.387 1.488 4.269zm6.821-11.553c-.723-.79-1.82-1.186-3.293-1.186-.964 0-1.764.163-2.402.487-.638.325-1.147.727-1.53 1.207-.383.479-.652.988-.808 1.524s-.248 1.016-.276 1.439h9.817c-.283-1.524-.786-2.681-1.508-3.471z"/>
    <path d="M87.122 30.095v30.344h-6.031V30.095h6.031z"/>
    <path d="M96.685 60.438 89.162 38.47h6.333l4.633 15h.085l4.632-15h5.993L103.4 60.438h-6.715z"/>
    <path d="M119.149 55.177c.907.883 2.21 1.324 3.91 1.324 1.218 0 2.267-.304 3.145-.913.878-.608 1.417-1.252 1.615-1.931h5.312c-.85 2.632-2.153 4.514-3.91 5.646s-3.881 1.698-6.375 1.698c-1.729 0-3.287-.276-4.675-.829-1.388-.553-2.563-1.339-3.526-2.359s-1.707-2.239-2.23-3.656c-.524-1.417-.786-2.976-.786-4.676 0-1.644.269-3.174.807-4.591s1.302-2.643 2.293-3.677c.991-1.034 2.173-1.849 3.547-2.444s2.897-.893 4.569-.893c1.87 0 3.499.361 4.887 1.083 1.388.722 2.529 1.691 3.421 2.908s1.537 2.604 1.934 4.16c.396 1.557.539 3.184.425 4.881h-15.853c.088 1.964.583 3.387 1.49 4.269zm6.821-11.553c-.723-.79-1.82-1.186-3.293-1.186-.964 0-1.764.163-2.402.487-.638.325-1.147.727-1.53 1.207-.383.479-.652.988-.808 1.524s-.248 1.016-.276 1.439h9.817c-.282-1.524-.785-2.681-1.508-3.471z"/>
    <path d="M148.527 38.47v4.031h-4.42v10.886c0 1.021.17 1.701.51 2.041.34.34 1.02.51 2.041.51.34 0 .666-.014.977-.042s.609-.071.893-.127v4.67c-.51.087-1.077.146-1.7.175-.624.029-1.233.043-1.828.043-.935 0-1.82-.064-2.655-.191-.835-.127-1.572-.375-2.208-.744-.637-.368-1.14-.893-1.508-1.573-.368-.68-.552-1.573-.552-2.679V42.501h-3.655V38.47h3.655v-6.594h6.031v6.594h4.419z"/>
    <path d="M150.959 35.063v-4.969h6.031v4.969h-6.031zm6.032 3.403v21.973h-6.031V38.466h6.031z"/>
    <path d="M171.617 42.438c-.963 0-1.771.22-2.422.659-.652.439-1.183 1.005-1.594 1.699-.411.694-.702 1.459-.872 2.294s-.255 1.664-.255 2.485c0 .793.085 1.6.255 2.421s.446 1.565.829 2.23c.382.666.899 1.211 1.551 1.636.651.425 1.445.637 2.38.637 1.445 0 2.557-.403 3.336-1.211s1.268-1.891 1.466-3.251h5.823c-.397 2.918-1.53 5.142-3.4 6.67s-4.264 2.292-7.182 2.292c-1.644 0-3.152-.276-4.526-.829-1.374-.553-2.542-1.325-3.505-2.317-.963-.992-1.713-2.175-2.251-3.549s-.807-2.884-.807-4.528c0-1.7.248-3.28.743-4.739s1.225-2.721 2.188-3.784c.963-1.062 2.138-1.892 3.526-2.487 1.388-.595 2.974-.893 4.759-.893 1.303 0 2.557.17 3.761.511 1.204.341 2.281.858 3.23 1.554s1.721 1.561 2.316 2.597c.595 1.036.935 2.263 1.02 3.682h-5.908c-.395-2.518-1.883-3.779-4.461-3.779z"/>
    <path d="M185.698 41.696c.622-.934 1.414-1.684 2.375-2.25.961-.566 2.043-.969 3.245-1.21 1.202-.24 2.411-.361 3.627-.361 1.103 0 2.22.078 3.351.234 1.131.156 2.163.461 3.097.914.933.453 1.696 1.084 2.29 1.892s.892 1.877.892 3.209V55.56c0 .992.057 1.941.17 2.848.113.907.312 1.587.595 2.041l-6.121-.009c-.113-.339-.205-.685-.276-1.038-.071-.353-.12-.713-.148-1.081-.961.993-2.092 1.688-3.393 2.085s-2.629.596-3.986.596c-1.046 0-2.022-.128-2.927-.383s-1.696-.652-2.375-1.19-1.208-1.219-1.59-2.041-.572-1.8-.572-2.935c0-1.247.219-2.275.657-3.083.438-.808 1.004-1.453 1.697-1.935.693-.482 1.485-.843 2.375-1.084s1.789-.433 2.694-.574 1.796-.255 2.673-.34 1.655-.212 2.333-.382 1.216-.418 1.612-.745.58-.801.552-1.425c0-.652-.106-1.169-.318-1.552s-.494-.68-.847-.893-.762-.354-1.228-.425-.967-.106-1.503-.106c-1.186 0-2.117.255-2.794.765-.678.51-1.073 1.359-1.186 2.548h-6.031c.085-1.417.438-2.592 1.06-3.526zm11.892 8.526c-.382.128-.792.234-1.229.319s-.897.156-1.377.212-.961.127-1.441.212c-.452.085-.897.199-1.335.34s-.819.333-1.145.574-.586.545-.784.914-.296.836-.296 1.402c0 .539.099.992.296 1.36s.466.659.806.871c.339.213.735.361 1.187.446s.918.127 1.399.127c1.187 0 2.105-.198 2.755-.595s1.13-.871 1.441-1.424c.311-.553.501-1.112.572-1.679.07-.566.106-1.02.106-1.36v-2.252c-.255.228-.573.406-.955.533z"/>
  </g>
  <path d="M42.459 362.514c-.885 0-1.589-.247-2.112-.74-.523-.492-.785-1.3-.785-2.42-.934 1.12-2.021 1.928-3.261 2.42-1.24.493-2.581.74-4.021.74-.934 0-1.814-.1-2.641-.3s-1.554-.532-2.181-.999-1.12-1.066-1.48-1.801c-.36-.732-.54-1.619-.54-2.658 0-1.174.2-2.133.6-2.879s.927-1.354 1.581-1.82c.654-.466 1.401-.818 2.242-1.059.84-.24 1.701-.439 2.582-.6.934-.188 1.821-.327 2.662-.42.84-.094 1.581-.227 2.221-.4s1.147-.427 1.521-.76.561-.82.561-1.459c0-.746-.14-1.347-.42-1.8s-.639-.8-1.079-1.04-.933-.399-1.479-.479-1.085-.12-1.618-.12c-1.438 0-2.637.272-3.596.817s-1.479 1.574-1.559 3.089H26.25c.053-1.277.32-2.355.8-3.233s1.121-1.59 1.921-2.136c.801-.545 1.721-.938 2.762-1.178 1.041-.239 2.135-.359 3.282-.359.934 0 1.861.066 2.782.2.92.134 1.754.406 2.501.819s1.348.992 1.801 1.738.681 1.719.681 2.918v10.631c0 .8.046 1.386.14 1.759.093.373.407.56.94.56.293 0 .64-.066 1.04-.2v2.647c-.586.348-1.4.522-2.441.522zm-4.768-10.429c-.695.147-1.423.267-2.185.36s-1.53.199-2.305.32c-.775.119-1.47.312-2.085.58-.615.266-1.116.646-1.503 1.14s-.581 1.167-.581 2.02c0 .56.113 1.033.341 1.42.227.387.521.7.882.94s.789.414 1.283.52c.494.107.996.16 1.503.16 1.122 0 2.084-.153 2.886-.46s1.457-.692 1.965-1.159.882-.974 1.123-1.521c.24-.547.361-1.06.361-1.54v-3.48c-.429.32-.99.553-1.685.7z"/>
  <path d="M58.893 333.514V344.2h.094c.559-1.146 1.438-1.979 2.636-2.5 1.198-.521 2.516-.78 3.954-.78 1.597 0 2.988.293 4.173.88s2.17 1.38 2.955 2.38 1.378 2.152 1.777 3.459c.399 1.306.599 2.691.599 4.158s-.193 2.853-.579 4.158c-.386 1.307-.972 2.447-1.757 3.42s-1.771 1.739-2.955 2.299-2.562.84-4.133.84c-.506 0-1.072-.054-1.697-.16-.626-.106-1.245-.279-1.857-.52s-1.191-.566-1.737-.98c-.546-.412-1.005-.926-1.377-1.54h-.094v2.761h-3.406v-28.561h3.404zm12.214 15.221c-.253-.919-.64-1.738-1.16-2.458-.52-.719-1.187-1.291-2-1.718s-1.767-.64-2.859-.64c-1.146 0-2.12.227-2.92.68s-1.453 1.046-1.959 1.778c-.507.732-.874 1.565-1.1 2.497-.227.934-.34 1.879-.34 2.838 0 1.012.12 1.991.36 2.938.24.945.62 1.777 1.14 2.497s1.193 1.299 2.02 1.738 1.827.659 3 .659 2.153-.227 2.939-.68 1.42-1.052 1.9-1.798c.479-.746.826-1.599 1.04-2.558s.32-1.944.32-2.957c-.001-.957-.128-1.897-.381-2.816z"/>
  <path d="M98.75 345.002c-.854-.721-2-1.082-3.44-1.082-1.227 0-2.253.227-3.08.68s-1.487 1.053-1.98 1.799-.847 1.604-1.06 2.576c-.213.973-.32 1.979-.32 3.018 0 .959.113 1.892.34 2.797.227.906.58 1.712 1.06 2.418s1.106 1.272 1.88 1.699c.773.426 1.693.639 2.76.639 1.68 0 2.993-.439 3.94-1.317.946-.878 1.526-2.116 1.74-3.714h3.48c-.374 2.561-1.327 4.533-2.86 5.92s-3.62 2.08-6.26 2.08c-1.574 0-2.967-.254-4.18-.76-1.213-.506-2.226-1.227-3.038-2.159s-1.424-2.046-1.837-3.339-.619-2.713-.619-4.26c0-1.545.199-2.992.599-4.338s1.005-2.52 1.817-3.52c.812-.999 1.832-1.785 3.058-2.359 1.227-.572 2.653-.859 4.28-.859 1.173 0 2.273.141 3.3.42 1.026.281 1.933.715 2.72 1.302s1.433 1.327 1.94 2.222c.507.894.827 1.954.96 3.182h-3.52c-.266-1.311-.826-2.324-1.68-3.045z"/>
  <path d="m130.264 362.074.007-2.801h-.101c-.56 1.146-1.438 1.974-2.636 2.48-1.198.506-2.516.76-3.954.76-1.598 0-2.989-.293-4.173-.879-1.185-.587-2.17-1.373-2.955-2.359s-1.377-2.133-1.777-3.439-.599-2.693-.599-4.159.193-2.853.579-4.159c.386-1.306.972-2.445 1.757-3.418s1.771-1.746 2.955-2.32c1.185-.572 2.562-.859 4.134-.859.532 0 1.104.054 1.717.16.612.107 1.225.287 1.837.54s1.191.587 1.737 1 1.005.927 1.378 1.54h.094v-10.646h3.406v28.561h-3.406zm-12.214-7.344c.253.918.64 1.738 1.16 2.457s1.187 1.292 2 1.719c.813.426 1.767.639 2.86.639 1.146 0 2.12-.227 2.919-.68s1.453-1.045 1.96-1.777c.506-.732.873-1.565 1.1-2.498s.34-1.879.34-2.838c0-1.012-.12-1.99-.36-2.937-.24-.946-.62-1.778-1.14-2.497-.52-.72-1.193-1.299-2.02-1.738s-1.827-.66-3-.66c-1.146 0-2.12.227-2.92.68s-1.44 1.053-1.919 1.799c-.48.746-.827 1.598-1.04 2.557s-.32 1.945-.32 2.957c0 .958.126 1.898.38 2.817z"/>
  <path d="M160.881 360.754c-1.547 1.174-3.494 1.76-5.842 1.76-1.654 0-3.088-.267-4.302-.8s-2.234-1.279-3.061-2.239c-.827-.959-1.448-2.105-1.861-3.439-.414-1.332-.647-2.785-.7-4.358 0-1.573.24-3.013.72-4.319s1.154-2.438 2.021-3.398c.867-.959 1.895-1.706 3.083-2.239s2.488-.8 3.903-.8c1.841 0 3.369.381 4.583 1.141s2.188 1.727 2.922 2.9c.733 1.174 1.241 2.455 1.521 3.842s.394 2.707.34 3.961h-15.5c-.027.904.08 1.762.32 2.573s.627 1.528 1.161 2.153 1.214 1.125 2.042 1.496c.828.373 1.802.559 2.923.559 1.441 0 2.623-.332 3.543-.998.921-.664 1.528-1.676 1.822-3.033h3.36c-.451 2.318-1.451 4.064-2.998 5.238zm-.807-13.272c-.308-.721-.722-1.341-1.243-1.861s-1.136-.934-1.844-1.24c-.708-.307-1.49-.461-2.345-.461-.882 0-1.677.154-2.385.461-.708.307-1.316.727-1.824 1.26-.508.534-.909 1.154-1.203 1.861s-.468 1.461-.521 2.262h11.906c-.053-.801-.234-1.561-.541-2.282z"/>
  <path d="M172.966 344.389v-3h3.48v-3.075c0-1.677.486-2.948 1.458-3.813s2.389-1.299 4.252-1.299c.319 0 .686.027 1.098.08.413.054.779.133 1.098.24v2.959c-.292-.105-.611-.18-.956-.219-.345-.041-.664-.061-.956-.061-.823 0-1.46.16-1.912.479-.451.32-.677.932-.677 1.836v2.873h4v3h-4v17.688h-3.406v-17.688h-3.479z"/>
  <path d="M209.724 367.93c-1.546 1.682-3.973 2.521-7.278 2.521-.96 0-1.939-.107-2.939-.32s-1.906-.56-2.719-1.039c-.813-.48-1.486-1.106-2.02-1.879-.533-.774-.827-1.721-.88-2.841h3.406c.026.613.22 1.134.58 1.561.36.427.8.772 1.32 1.04.521.266 1.088.459 1.701.58.613.119 1.199.18 1.76.18 1.121 0 2.067-.193 2.841-.58s1.413-.92 1.921-1.6c.506-.68.873-1.499 1.1-2.459.227-.959.34-2.012.34-3.159v-1.36h-.08c-.588 1.281-1.475 2.221-2.663 2.82-1.188.601-2.45.9-3.785.9-1.549 0-2.897-.279-4.045-.84-1.148-.561-2.109-1.314-2.884-2.262s-1.355-2.055-1.743-3.322-.581-2.609-.581-4.023c0-1.228.16-2.488.48-3.783.32-1.293.854-2.468 1.603-3.521.748-1.055 1.735-1.922 2.964-2.602 1.228-.682 2.738-1.021 4.527-1.021 1.309 0 2.51.287 3.604.86s1.95 1.435 2.563 2.581h.039V341.4h3.188v18.927c-.001 3.388-.774 5.923-2.32 7.603zm-4.333-9.304c.789-.467 1.424-1.08 1.905-1.841.481-.76.835-1.621 1.063-2.581.227-.96.34-1.921.34-2.882 0-.906-.106-1.8-.32-2.68-.214-.881-.555-1.674-1.023-2.381-.467-.707-1.076-1.274-1.824-1.701s-1.658-.641-2.727-.641c-1.097 0-2.032.207-2.808.621-.775.413-1.411.967-1.905 1.66s-.855 1.494-1.083 2.4c-.228.908-.341 1.854-.341 2.842 0 .934.093 1.867.281 2.801.187.934.508 1.781.962 2.541.454.761 1.056 1.374 1.805 1.841.748.467 1.684.7 2.807.7s2.079-.232 2.868-.699z"/>
  <path d="M227.885 333.514v10.921h.094c.267-.639.64-1.178 1.119-1.617s1.019-.799 1.618-1.079c.6-.279 1.226-.485 1.878-.619.652-.133 1.285-.199 1.898-.199 1.357 0 2.49.188 3.396.561.904.373 1.637.893 2.197 1.559.559.668.951 1.461 1.178 2.381s.34 1.939.34 3.059v13.598h-3.406v-13.997c0-1.279-.373-2.292-1.119-3.039s-1.771-1.12-3.077-1.12c-1.04 0-1.938.16-2.698.48s-1.393.773-1.898 1.359c-.507.586-.887 1.273-1.14 2.06s-.38 1.646-.38 2.579v11.678h-3.406v-28.562h3.406z"/>
  <path d="M254.227 337.67v-4.156h3.406v4.156h-3.406zm3.406 3.726v20.68h-3.406v-20.68h3.406z"/>
  <path d="M272.49 368.691c-.895.84-2.102 1.26-3.623 1.26-.615 0-1.189-.054-1.723-.16v-2.92c.134.026.247.047.34.061.094.013.193.02.301.02h.72c.747 0 1.254-.207 1.521-.619.267-.414.4-1.154.4-2.221v-22.721h3.406v23.281c0 1.84-.447 3.18-1.342 4.019zm-2.064-31.021v-4.156h3.406v4.156h-3.406z"/>
  <path d="M290.031 333.514v16.922l9.44-9.041h4.56l-8.199 7.521 8.799 13.161h-4.319l-7.08-10.8-3.2 2.96v7.84h-3.406v-28.562h3.405z"/>
  <path d="M318.111 333.514v28.562h-3.406v-28.562h3.406z"/>
  <path d="M333.924 341.4v3.039h.074c1.549-2.346 3.779-3.52 6.689-3.52 1.281 0 2.443.268 3.484.801s1.775 1.439 2.203 2.719c.693-1.119 1.607-1.986 2.742-2.6s2.383-.92 3.744-.92c1.041 0 1.982.113 2.823.34s1.562.58 2.162 1.061c.601.479 1.067 1.1 1.401 1.859s.5 1.673.5 2.739v15.157h-3.406V348.52c0-.641-.053-1.24-.16-1.801-.106-.559-.307-1.046-.6-1.459-.294-.413-.701-.74-1.221-.98-.521-.239-1.194-.359-2.021-.359-1.682 0-3.002.48-3.963 1.439-.961.961-1.441 2.24-1.441 3.84v12.877h-3.406V348.52c0-.667-.06-1.28-.18-1.84-.12-.561-.327-1.047-.621-1.46-.293-.413-.687-.733-1.18-.96-.494-.227-1.128-.34-1.902-.34-.986 0-1.834.2-2.541.6-.707.4-1.281.881-1.721 1.439-.441.561-.761 1.141-.961 1.74s-.301 1.1-.301 1.5v12.877h-3.406V341.4h3.209z"/>
  <path d="M29.769 384.4v3.279h.075c1.414-2.506 3.654-3.76 6.722-3.76 1.36 0 2.494.188 3.401.561.907.373 1.64.893 2.201 1.559.56.668.954 1.461 1.18 2.381s.34 1.939.34 3.059v13.598h-3.406V391.08c0-1.279-.373-2.292-1.119-3.039s-1.772-1.12-3.078-1.12c-1.04 0-1.939.16-2.698.48-.76.32-1.393.773-1.899 1.359s-.886 1.273-1.139 2.06-.379 1.646-.379 2.579v11.678h-3.406V384.4h3.205z"/>
  <path d="M55.638 390.498c.427-1.319 1.067-2.466 1.921-3.439.854-.973 1.908-1.738 3.162-2.299 1.254-.56 2.695-.84 4.323-.84 1.654 0 3.102.28 4.343.84 1.241.561 2.288 1.326 3.142 2.299.854.974 1.495 2.12 1.921 3.439.427 1.32.641 2.739.641 4.259s-.214 2.933-.641 4.239-1.067 2.445-1.921 3.418c-.854.974-1.901 1.733-3.142 2.279-1.241.547-2.688.82-4.343.82-1.628 0-3.069-.273-4.323-.82-1.254-.546-2.308-1.306-3.162-2.279-.854-.973-1.495-2.111-1.921-3.418s-.64-2.72-.64-4.239.213-2.939.64-4.259zm3.454 7.592c.334.973.795 1.785 1.383 2.438s1.276 1.152 2.064 1.498c.788.347 1.624.52 2.505.52s1.717-.173 2.505-.52c.788-.346 1.477-.846 2.064-1.498s1.049-1.465 1.383-2.438.501-2.086.501-3.338-.167-2.363-.501-3.336-.795-1.792-1.383-2.458-1.276-1.172-2.064-1.519c-.788-.346-1.623-.52-2.505-.52s-1.717.174-2.505.52c-.788.347-1.476.853-2.064 1.519s-1.049 1.485-1.383 2.458-.501 2.084-.501 3.336.167 2.365.501 3.338z"/>
  <path d="M89.933 384.4v2.799h.094c.559-1.146 1.438-1.979 2.636-2.5 1.198-.52 2.516-.779 3.954-.779 1.597 0 2.988.293 4.173.88s2.17 1.38 2.955 2.38 1.378 2.152 1.777 3.459c.399 1.306.599 2.691.599 4.158s-.193 2.853-.579 4.158c-.386 1.307-.972 2.447-1.757 3.42s-1.771 1.739-2.955 2.299-2.562.84-4.133.84c-.506 0-1.072-.054-1.697-.16-.626-.106-1.245-.279-1.857-.52s-1.191-.566-1.737-.98c-.546-.412-1.005-.926-1.377-1.539h-.094v10.637h-3.406V384.4h3.404zm12.214 7.335c-.253-.919-.64-1.738-1.16-2.458-.52-.719-1.187-1.291-2-1.718s-1.767-.64-2.859-.64c-1.146 0-2.12.227-2.92.68s-1.453 1.046-1.959 1.778c-.507.732-.874 1.565-1.1 2.497-.227.934-.34 1.879-.34 2.838 0 1.012.12 1.991.36 2.938.24.945.62 1.777 1.14 2.497s1.193 1.299 2.02 1.738 1.827.659 3 .659 2.153-.227 2.939-.68 1.42-1.052 1.9-1.798c.479-.746.826-1.599 1.04-2.558s.32-1.944.32-2.957c-.001-.957-.128-1.897-.381-2.816z"/>
  <path d="M132.504 412.951v-10.678h-.062c-.561 1.146-1.441 1.974-2.641 2.48s-2.521.76-3.961.76c-1.601 0-2.995-.293-4.182-.879-1.187-.587-2.174-1.373-2.961-2.359s-1.38-2.133-1.78-3.439c-.4-1.307-.6-2.693-.6-4.159s.193-2.853.58-4.159c.386-1.306.972-2.445 1.758-3.418s1.772-1.746 2.958-2.32c1.186-.572 2.564-.859 4.137-.859.533 0 1.105.054 1.719.16.613.106 1.226.287 1.838.539.613.254 1.192.588 1.739 1 .546.414 1.006.927 1.379 1.54h.08v-2.76h3.406v28.551h-3.407zM120.29 397.73c.253.918.64 1.738 1.16 2.457s1.187 1.292 2 1.719c.813.426 1.767.639 2.86.639 1.146 0 2.12-.227 2.919-.68s1.453-1.045 1.96-1.777c.506-.732.873-1.565 1.1-2.498s.34-1.879.34-2.838c0-1.012-.12-1.99-.36-2.937-.24-.946-.62-1.778-1.14-2.497-.52-.72-1.193-1.299-2.02-1.738s-1.827-.66-3-.66c-1.146 0-2.12.227-2.92.68s-1.44 1.053-1.919 1.799c-.48.746-.827 1.598-1.04 2.557s-.32 1.945-.32 2.957c0 .958.127 1.898.38 2.817z"/>
  <path d="M151.575 384.4v4.359h.075c.821-1.68 1.832-2.92 3.032-3.72s2.72-1.173 4.56-1.12v3.594c-1.36 0-2.52.188-3.48.561s-1.733.92-2.32 1.64c-.587.72-1.014 1.594-1.28 2.62-.267 1.027-.4 2.207-.4 3.541v9.201h-3.406V384.4h3.219z"/>
  <path d="M171.733 400.445c.319.52.738.934 1.256 1.24s1.104.526 1.755.66c.651.133 1.323.199 2.015.199.532 0 1.09-.039 1.675-.119s1.123-.227 1.615-.44.897-.526 1.217-.938c.319-.414.479-.939.479-1.58 0-.879-.333-1.545-.999-1.998-.666-.453-1.498-.818-2.497-1.099s-2.083-.532-3.255-.759c-1.172-.227-2.257-.547-3.255-.96s-1.831-.993-2.496-1.739c-.666-.746-.999-1.785-.999-3.117 0-1.039.233-1.932.699-2.678s1.066-1.352 1.799-1.818c.732-.466 1.559-.812 2.478-1.039.919-.227 1.832-.34 2.738-.34 1.172 0 2.251.1 3.237.3s1.858.546 2.618 1.038c.759.492 1.365 1.158 1.818 1.996.453.839.72 1.884.8 3.135h-3.406c-.054-.664-.227-1.216-.52-1.654s-.666-.791-1.118-1.057c-.453-.266-.952-.459-1.498-.578s-1.099-.18-1.658-.18c-.506 0-1.019.04-1.538.12s-.992.22-1.418.42c-.426.2-.772.467-1.039.8-.267.333-.399.766-.399 1.299 0 .588.206 1.074.619 1.46.413.387.938.706 1.578.96.639.253 1.358.467 2.157.64s1.598.353 2.396.54c.852.186 1.684.412 2.496.68.812.266 1.531.619 2.157 1.06s1.132.993 1.518 1.659c.386.666.579 1.492.579 2.479 0 1.254-.26 2.293-.779 3.119-.52.827-1.198 1.494-2.037 2-.839.507-1.784.859-2.835 1.06s-2.097.3-3.135.3c-1.145 0-2.237-.12-3.275-.36s-1.957-.634-2.755-1.181c-.799-.548-1.438-1.27-1.917-2.164-.479-.895-.746-1.982-.799-3.264h3.406c.03.745.203 1.379.522 1.898z"/>
  <path d="M205.285 384.389v3h-4.125v12.847c0 .4.033.72.1.96s.193.428.381.561c.186.134.446.221.78.26.334.041.768.061 1.302.061h1.562v3h-2.603c-.881 0-1.636-.061-2.263-.18-.627-.121-1.134-.34-1.521-.66s-.674-.774-.861-1.361c-.187-.587-.28-1.36-.28-2.32l-.005-13.166h-3.52v-3h3.52v-6.188h3.407v6.188h4.126z"/>
  <path d="m230.267 405.074.013-3.281h-.075c-.72 1.28-1.641 2.221-2.761 2.82-1.121.6-2.441.9-3.961.9-1.36 0-2.494-.18-3.4-.54-.908-.36-1.641-.873-2.201-1.54s-.954-1.461-1.181-2.381-.34-1.94-.34-3.061v-13.604h3.406v13.997c0 1.28.373 2.293 1.119 3.04.746.746 1.772 1.119 3.077 1.119 1.039 0 1.939-.16 2.699-.48.759-.319 1.392-.772 1.898-1.359.506-.586.886-1.272 1.139-2.059.253-.787.38-1.646.38-2.58v-11.678h3.406v20.686h-3.218z"/>
  <path d="m251.598 405.076-7.68-20.688h3.8l5.8 17.246h.08l5.641-17.246h3.56l-7.56 20.688h-3.641z"/>
  <path d="m290.117 405.076-4.199-16.445h-.08l-4.16 16.445h-3.68l-6.641-20.688h3.76l4.681 16.926h.08l4.159-16.926h3.721l4.32 16.926h.08l4.64-16.926h3.521l-6.601 20.688h-3.601z"/>
  <path d="M309.237 384.389h4.36l4.96 7.242 5.159-7.242h4.08l-7.119 9.523 8 11.164h-4.36l-5.76-8.562-5.761 8.562h-4.119l7.76-10.884-7.2-9.803z"/>
  <path d="M345.857 410.364c-.387.693-.813 1.261-1.28 1.701s-.979.761-1.54.96c-.561.201-1.227.301-2 .301-.4 0-.8-.027-1.199-.08-.4-.054-.787-.146-1.16-.28v-3.122c.319.107.646.214.979.32.333.107.673.16 1.021.16.693 0 1.253-.16 1.68-.48s.8-.787 1.12-1.4l1.399-3.482-8.199-20.572h3.84l6.04 16.93h.079l5.801-16.93h3.6l-9 23.414c-.401 1.012-.794 1.866-1.181 2.56z"/>
  <path d="M377.037 387.389h-11.68v-3h16.079v2.32l-12.64 15.367h13.199v3h-17.439v-2.602l12.481-15.085z"/>
  <g fill="#FFF">
    <path d="M102.51 430.906c.053-1.121.187-2.215.4-3.281.213-1.067.52-2.081.919-3.041.4-.961.946-1.801 1.64-2.521s1.566-1.294 2.62-1.721c1.053-.427 2.312-.641 3.779-.641 1.466 0 2.726.214 3.779.641 1.053.427 1.926 1 2.619 1.721s1.24 1.561 1.64 2.521c.4.96.707 1.974.92 3.041.213 1.066.346 2.16.4 3.281.053 1.121.08 2.201.08 3.241s-.027 2.121-.08 3.241c-.054 1.121-.187 2.215-.4 3.281-.213 1.068-.52 2.074-.92 3.021s-.946 1.781-1.64 2.502c-.693.72-1.56 1.287-2.599 1.7-1.04.413-2.306.62-3.799.62-1.466 0-2.726-.207-3.779-.62-1.053-.413-1.926-.98-2.62-1.7-.693-.721-1.24-1.555-1.64-2.502s-.707-1.953-.919-3.021c-.213-1.066-.347-2.16-.4-3.281-.054-1.12-.08-2.201-.08-3.241s.026-2.12.08-3.241zm3.614 6.778c.066 1.32.28 2.561.64 3.721s.94 2.141 1.741 2.94c.8.8 1.921 1.2 3.362 1.2s2.562-.4 3.362-1.2c.8-.8 1.38-1.78 1.741-2.94s.574-2.4.641-3.721c.066-1.32.1-2.514.1-3.58 0-.693-.007-1.461-.02-2.301-.014-.84-.08-1.68-.2-2.521-.12-.84-.294-1.66-.521-2.46-.227-.801-.56-1.5-1-2.101s-.994-1.087-1.661-1.46-1.481-.561-2.441-.561c-.961 0-1.775.188-2.442.561s-1.221.859-1.661 1.46-.774 1.3-1 2.101c-.227.8-.4 1.62-.52 2.46-.12.841-.187 1.681-.2 2.521-.014.84-.02 1.607-.02 2.301-.002 1.066.032 2.259.099 3.58z"/>
    <path d="M133.586 448.076v-20.312h-7.36v-2.719c.96 0 1.893-.073 2.8-.221s1.727-.422 2.46-.824c.733-.401 1.354-.951 1.86-1.646.507-.697.854-1.581 1.041-2.652h2.605v28.375h-3.406z"/>
  </g>
  <g fill="#FFF">
    <path d="M146.961 425.741c.374-1.227.955-2.286 1.743-3.181.788-.893 1.77-1.592 2.945-2.1 1.175-.506 2.511-.76 4.007-.76 1.229 0 2.384.18 3.466.541 1.082.359 2.023.88 2.825 1.561.801.681 1.436 1.527 1.903 2.541.467 1.014.701 2.188.701 3.522 0 1.254-.194 2.361-.582 3.321-.388.961-.902 1.822-1.543 2.582-.642.761-1.377 1.447-2.206 2.062s-1.684 1.2-2.565 1.761c-.882.533-1.765 1.061-2.646 1.581-.882.521-1.691 1.074-2.426 1.661-.735.587-1.363 1.221-1.884 1.9-.521.682-.862 1.461-1.022 2.342h14.594v3h-18.513c.133-1.681.433-3.115.9-4.303s1.06-2.221 1.78-3.102c.72-.881 1.533-1.654 2.44-2.321.906-.667 1.853-1.294 2.84-1.882 1.2-.746 2.253-1.434 3.16-2.061.906-.627 1.66-1.26 2.26-1.9s1.054-1.335 1.36-2.082.46-1.614.46-2.602c0-.773-.147-1.475-.441-2.102s-.688-1.167-1.183-1.621c-.495-.453-1.077-.8-1.745-1.04-.669-.24-1.377-.36-2.126-.36-.99 0-1.839.207-2.547.62-.709.413-1.291.953-1.745 1.62-.455.666-.782 1.42-.982 2.26-.201.84-.288 1.687-.261 2.54h-3.406c-.082-1.438.065-2.771.439-3.998z"/>
    <path d="M180.355 431.92h1.12c.72 0 1.406-.1 2.06-.301.653-.199 1.227-.494 1.72-.881.493-.389.887-.876 1.18-1.464.293-.588.44-1.256.44-2.004 0-1.522-.482-2.665-1.445-3.427-.964-.762-2.168-1.143-3.613-1.143-.91 0-1.706.167-2.389.5-.683.334-1.245.78-1.686 1.34-.442.561-.77 1.213-.984 1.96s-.321 1.534-.321 2.36h-3.406c.053-1.36.273-2.6.661-3.721.388-1.119.942-2.08 1.664-2.879.722-.801 1.624-1.428 2.706-1.881 1.082-.453 2.332-.68 3.748-.68 1.229 0 2.372.154 3.427.461s1.971.768 2.746 1.382c.775.614 1.383 1.401 1.824 2.363s.662 2.097.662 3.404c0 1.282-.375 2.417-1.125 3.405s-1.688 1.735-2.812 2.242v.08c1.735.373 3.023 1.187 3.864 2.439s1.261 2.732 1.261 4.438c0 1.413-.26 2.659-.781 3.739-.521 1.079-1.221 1.979-2.102 2.698s-1.916 1.26-3.103 1.62c-1.188.359-2.449.539-3.784.539-1.441 0-2.75-.201-3.924-.602-1.175-.401-2.176-.996-3.003-1.785-.828-.787-1.461-1.756-1.902-2.902s-.647-2.453-.621-3.92h3.406c.053 1.84.587 3.34 1.603 4.5 1.015 1.16 2.497 1.74 4.447 1.74.828 0 1.615-.127 2.363-.379.748-.254 1.402-.613 1.963-1.079.561-.466 1.008-1.038 1.342-1.718s.501-1.445.501-2.297c0-.879-.159-1.658-.475-2.338-.317-.679-.742-1.252-1.274-1.717-.532-.467-1.165-.812-1.898-1.039s-1.527-.34-2.38-.34c-.72 0-1.4.042-2.04.125v-2.884c.133.032.253.046.36.046z"/>
    <path d="M218.32 438.451v3h-3.84v6.625h-3.188v-6.625h-12.44v-3.285l12.918-18.465h2.71v18.75h3.84zm-7.027-13.907h-.08l-9.44 13.907h9.521v-13.907z"/>
    <path d="m231.578 423.201-1.52 8.147.08.08c.613-.693 1.406-1.206 2.381-1.54.973-.333 1.94-.5 2.9-.5 1.254 0 2.441.2 3.562.6 1.12.4 2.094 1.008 2.921 1.821s1.48 1.827 1.961 3.04c.48 1.215.721 2.635.721 4.262 0 1.2-.207 2.367-.62 3.501-.414 1.134-1.034 2.141-1.861 3.021-.827.881-1.861 1.58-3.102 2.101s-2.688.78-4.342.78c-1.228 0-2.381-.181-3.461-.541-1.081-.361-2.035-.883-2.861-1.564-.828-.682-1.481-1.529-1.961-2.543-.48-1.014-.734-2.16-.761-3.44h3.406c.054.72.233 1.394.54 2.021s.721 1.173 1.241 1.64 1.134.827 1.841 1.08 1.488.38 2.342.38c.801 0 1.568-.14 2.302-.42.733-.279 1.374-.699 1.921-1.26.547-.559.981-1.26 1.302-2.1s.48-1.818.48-2.939c0-.932-.153-1.792-.46-2.578-.307-.787-.74-1.467-1.301-2.039-.561-.574-1.234-1.02-2.021-1.34s-1.662-.48-2.622-.48c-1.12 0-2.114.247-2.981.74s-1.635 1.141-2.302 1.939l-2.921-.16 2.64-14.707h13.995v3h-11.439z"/>
    <path d="M265.787 423.864c-.826-.775-1.92-1.163-3.279-1.163-1.44 0-2.601.354-3.48 1.061s-1.566 1.602-2.061 2.682c-.492 1.082-.833 2.248-1.02 3.502s-.293 2.428-.32 3.521l.08.08c.799-1.307 1.791-2.254 2.975-2.84 1.186-.588 2.549-.881 4.094-.881 1.357 0 2.575.233 3.653.7s1.983 1.114 2.716 1.94c.731.828 1.297 1.801 1.696 2.922.399 1.12.599 2.334.599 3.641 0 1.041-.16 2.121-.479 3.242-.32 1.12-.847 2.141-1.579 3.061-.732.921-1.704 1.682-2.917 2.281-1.211.6-2.71.9-4.494.9-2.105 0-3.797-.428-5.074-1.28-1.279-.854-2.266-1.948-2.957-3.282-.693-1.334-1.152-2.801-1.379-4.401s-.34-3.147-.34-4.642c0-1.947.168-3.836.502-5.663s.9-3.448 1.703-4.862c.801-1.414 1.868-2.547 3.201-3.4 1.334-.854 3.014-1.281 5.041-1.281 2.346 0 4.213.621 5.6 1.863 1.387 1.241 2.187 3.037 2.4 5.387h-3.4c-.161-1.284-.655-2.312-1.481-3.088zm-6.177 9.462c-.72.334-1.333.787-1.839 1.359-.506.574-.887 1.254-1.139 2.041-.254.786-.381 1.619-.381 2.499s.134 1.706.4 2.479.646 1.44 1.139 2c.494.561 1.106 1.007 1.84 1.34.732.334 1.565.5 2.498.5.934 0 1.752-.166 2.459-.5.706-.333 1.299-.793 1.779-1.38.479-.587.846-1.26 1.1-2.02.252-.76.379-1.554.379-2.38 0-.88-.113-1.713-.34-2.5-.227-.786-.58-1.467-1.059-2.039-.48-.574-1.08-1.033-1.799-1.381-.721-.346-1.561-.52-2.52-.52s-1.797.169-2.517.502z"/>
    <path d="M293.51 428.16c-1.254 1.945-2.367 4.025-3.34 6.238-.974 2.213-1.767 4.493-2.38 6.84-.613 2.346-.987 4.625-1.12 6.838h-3.812c.16-2.4.555-4.741 1.184-7.021.629-2.281 1.438-4.469 2.426-6.562s2.129-4.074 3.423-5.941 2.687-3.588 4.181-5.162h-14.893v-3.188h18.372v2.92c-1.442 1.411-2.787 3.091-4.041 5.038z"/>
    <path d="M306.924 423.847c.454-.895 1.068-1.648 1.842-2.263.774-.614 1.662-1.082 2.663-1.402s2.049-.48 3.144-.48c1.548 0 2.869.207 3.964.621s1.982.961 2.663 1.643c.681.68 1.182 1.455 1.502 2.322.32.868.48 1.756.48 2.664 0 1.281-.354 2.449-1.061 3.504s-1.66 1.85-2.861 2.384c1.709.533 2.977 1.406 3.805 2.619s1.242 2.699 1.242 4.458c0 1.387-.248 2.613-.742 3.68s-1.161 1.966-2.002 2.699c-.841.732-1.836 1.286-2.983 1.659-1.147.372-2.376.56-3.685.56-1.361 0-2.629-.174-3.805-.52-1.174-.347-2.195-.88-3.062-1.6-.868-.72-1.549-1.619-2.043-2.699s-.74-2.34-.74-3.779c0-1.679.426-3.139 1.281-4.378.854-1.239 2.082-2.14 3.684-2.699-1.201-.48-2.163-1.262-2.884-2.343-.722-1.082-1.081-2.264-1.081-3.545-.001-1.176.226-2.211.679-3.105zm3.619 20.24c1.137.972 2.587 1.458 4.352 1.458.856 0 1.639-.14 2.348-.42.709-.279 1.324-.665 1.846-1.158.521-.492.922-1.071 1.203-1.737s.422-1.398.422-2.198c0-.771-.154-1.484-.462-2.137s-.729-1.219-1.264-1.697c-.535-.48-1.157-.859-1.866-1.139s-1.464-.42-2.266-.42c-.83 0-1.612.127-2.348.38s-1.377.619-1.926 1.099c-.548.479-.976 1.052-1.283 1.718s-.461 1.411-.461 2.237c0 1.703.568 3.042 1.705 4.014zm-.305-14.993c.268.574.629 1.049 1.084 1.423.454.374.989.655 1.604.842s1.271.28 1.966.28c1.365 0 2.488-.4 3.371-1.202s1.324-1.924 1.324-3.366c0-1.443-.449-2.532-1.345-3.268-.896-.734-2.04-1.102-3.431-1.102-.669 0-1.311.094-1.926.281-.615.187-1.144.467-1.585.841s-.796.829-1.063 1.362c-.268.535-.4 1.163-.4 1.885.001.775.134 1.45.401 2.024z"/>
    <path d="M337.179 444.427c.986.745 2.159 1.118 3.521 1.118 2.08 0 3.639-.896 4.68-2.689 1.039-1.793 1.613-4.541 1.72-8.244l-.08-.08c-.64 1.2-1.546 2.154-2.719 2.86s-2.452 1.06-3.839 1.06c-1.439 0-2.719-.233-3.838-.701-1.12-.467-2.06-1.115-2.819-1.943s-1.333-1.829-1.72-3.004c-.387-1.176-.579-2.457-.579-3.847 0-1.362.227-2.61.68-3.746.453-1.135 1.093-2.11 1.919-2.925s1.812-1.449 2.959-1.902c1.146-.455 2.398-.682 3.758-.682 1.333 0 2.586.207 3.758.621 1.174.413 2.199 1.127 3.079 2.141s1.579 2.395 2.099 4.141c.52 1.748.78 3.969.78 6.664 0 4.908-.78 8.677-2.339 11.305s-4.059 3.941-7.498 3.941c-2.374 0-4.348-.6-5.921-1.801-1.573-1.199-2.467-3.026-2.68-5.48h3.399c.133 1.383.692 2.448 1.68 3.193zm8.946-17.716c-.254-.775-.627-1.463-1.121-2.064s-1.101-1.076-1.82-1.424c-.721-.348-1.562-.521-2.521-.521-1.015 0-1.875.188-2.582.562s-1.281.876-1.721 1.503c-.441.629-.761 1.344-.961 2.146s-.3 1.644-.3 2.526c0 .775.14 1.523.42 2.244.28.723.667 1.363 1.161 1.926.493.561 1.08 1.009 1.761 1.343s1.435.501 2.261.501c.881 0 1.682-.167 2.402-.501.72-.334 1.334-.788 1.84-1.363.508-.575.895-1.243 1.161-2.005s.4-1.557.4-2.386c0-.884-.127-1.712-.38-2.487z"/>
  </g>
  <path fill="#FFF" d="M356.676 214.581c-5.02 0-9.014-1.4-11.979-4.199s-4.447-7.377-4.447-13.732c-5.289 6.355-11.445 10.934-18.471 13.732s-14.617 4.199-22.775 4.199c-5.289 0-10.273-.568-14.957-1.703-4.684-1.137-8.801-3.029-12.352-5.68-3.551-2.648-6.348-6.057-8.387-10.221s-3.059-9.199-3.059-15.105c0-6.664 1.133-12.115 3.4-16.355 2.266-4.238 5.252-7.684 8.955-10.334s7.934-4.656 12.695-6.02 9.637-2.498 14.625-3.408c5.289-1.059 10.314-1.854 15.076-2.385 4.762-.529 8.955-1.287 12.584-2.271 3.627-.984 6.498-2.422 8.615-4.316 2.115-1.893 3.174-4.656 3.174-8.291 0-4.24-.795-7.648-2.383-10.223-1.59-2.574-3.633-4.541-6.129-5.904s-5.295-2.271-8.396-2.727c-3.102-.453-6.166-.682-9.191-.682-8.17 0-14.979 1.553-20.424 4.654-5.447 3.104-8.398 8.969-8.852 17.596h-19.25c.301-7.26 1.814-13.385 4.539-18.377 2.723-4.99 6.355-9.035 10.896-12.137 4.539-3.102 9.76-5.332 15.662-6.693s12.107-2.043 18.615-2.043c5.297 0 10.555.379 15.775 1.137s9.949 2.309 14.188 4.656c4.236 2.348 7.641 5.643 10.215 9.885 2.572 4.242 3.859 9.77 3.859 16.584v60.436c0 4.545.264 7.877.795 9.998.529 2.121 2.307 3.18 5.334 3.18 1.664 0 3.633-.377 5.902-1.135v14.941c-3.327 1.961-7.946 2.943-13.852 2.943zm-27.074-59.086c-3.93.832-8.049 1.514-12.357 2.043-4.309.531-8.656 1.137-13.039 1.816-4.383.682-8.312 1.779-11.789 3.291-3.477 1.514-6.312 3.67-8.504 6.471s-3.287 6.621-3.287 11.463c0 3.18.643 5.865 1.928 8.059 1.285 2.195 2.947 3.973 4.988 5.334 2.039 1.363 4.459 2.346 7.256 2.951s5.631.908 8.502.908c6.348 0 11.791-.869 16.326-2.609s8.238-3.936 11.109-6.584 4.988-5.523 6.35-8.625c1.359-3.102 2.041-6.016 2.041-8.74v-19.75c-2.419 1.816-5.595 3.14-9.524 3.972z"/>
  <path d="m42.096 99.715 13.392 34.281h-5.04l-3.744-10.312H32.208l-3.84 10.312h-4.656l13.344-34.281h5.04zm3.168 20.125-5.712-15.996h-.096l-5.808 15.996h11.616z"/>
  <path d="M79.62 134.527c-1.057 0-1.898-.297-2.522-.888-.625-.592-.937-1.56-.937-2.904-1.12 1.345-2.423 2.312-3.911 2.904-1.487.591-3.095.888-4.822.888-1.12 0-2.176-.12-3.167-.359-.992-.24-1.863-.641-2.615-1.2s-1.344-1.279-1.775-2.159c-.432-.879-.647-1.943-.647-3.191 0-1.406.24-2.559.72-3.454s1.112-1.624 1.896-2.184c.784-.56 1.68-.983 2.688-1.271s2.04-.527 3.096-.72c1.12-.224 2.184-.392 3.191-.504 1.008-.111 1.896-.271 2.664-.479.768-.208 1.375-.512 1.824-.911.448-.4.672-.984.672-1.752 0-.896-.168-1.615-.503-2.159-.335-.544-.767-.96-1.293-1.247-.527-.289-1.118-.48-1.772-.576-.655-.096-1.301-.145-1.94-.145-1.725 0-3.162.329-4.312.987s-1.772 1.901-1.868 3.731h-4.094c.063-1.537.383-2.834.959-3.892s1.343-1.914 2.303-2.571c.959-.656 2.063-1.129 3.31-1.417s2.559-.433 3.934-.433c1.119 0 2.23.08 3.334.24s2.103.487 2.999.982c.896.496 1.615 1.191 2.159 2.086.543.895.815 2.062.815 3.5v12.754c0 .959.056 1.662.168 2.109.112.448.488.672 1.128.672.352 0 .768-.08 1.248-.24v3.177c-.706.417-1.682.626-2.93.626zm-5.724-12.514c-.832.177-1.703.32-2.614.433-.911.111-1.831.24-2.758.384-.928.144-1.759.376-2.494.696s-1.335.775-1.799 1.367-.695 1.4-.695 2.424c0 .672.136 1.24.408 1.705.271.463.624.84 1.055 1.127.432.289.943.496 1.535.625.592.127 1.191.191 1.799.191 1.343 0 2.494-.184 3.454-.552.959-.368 1.743-.832 2.35-1.392.607-.561 1.055-1.168 1.343-1.824.288-.656.432-1.272.432-1.849v-4.176c-.514.385-1.185.665-2.016.841z"/>
  <path d="m44.4 158.715 12.816 34.281h-7.824l-2.592-7.625H33.984l-2.688 7.625h-7.584l12.96-34.281H44.4zm.432 21.031-4.32-12.581h-.096l-4.464 12.581h8.88z"/>
  <path d="M59.241 171.82c.704-1.057 1.6-1.906 2.688-2.547s2.312-1.096 3.672-1.369c1.36-.271 2.729-.408 4.105-.408 1.248 0 2.512.088 3.792.264 1.28.177 2.448.521 3.504 1.033s1.92 1.225 2.592 2.137c.672.913 1.008 2.121 1.008 3.627v12.919c0 1.12.064 2.193.192 3.218s.352 1.793.672 2.305l-6.915-.002c-.128-.383-.232-.773-.312-1.172s-.136-.805-.168-1.219c-1.089 1.117-2.37 1.898-3.843 2.346-1.473.446-2.978.67-4.515.67-1.185 0-2.29-.145-3.314-.432-1.025-.289-1.921-.736-2.69-1.346-.769-.607-1.369-1.376-1.801-2.305-.433-.928-.648-2.033-.648-3.313 0-1.409.248-2.569.745-3.481s1.137-1.641 1.922-2.186c.785-.544 1.682-.952 2.691-1.225 1.009-.271 2.026-.488 3.052-.648s2.035-.287 3.028-.384c.993-.096 1.874-.239 2.643-.433.769-.191 1.377-.473 1.826-.84.448-.369.657-.904.625-1.609 0-.736-.12-1.32-.36-1.752-.24-.433-.561-.769-.961-1.009s-.865-.4-1.394-.48c-.529-.08-1.098-.12-1.706-.12-1.346 0-2.403.289-3.171.865-.769.578-1.217 1.539-1.345 2.885h-6.812c.093-1.602.494-2.931 1.198-3.989zm13.467 9.645c-.433.145-.898.265-1.396.36-.497.097-1.019.177-1.563.24-.545.063-1.091.144-1.636.239-.514.097-1.019.225-1.516.385s-.93.376-1.299.648c-.369.271-.666.615-.89 1.031s-.336.944-.336 1.584c0 .608.112 1.12.336 1.536s.529.744.914.984.834.408 1.347.504 1.042.144 1.588.144c1.347 0 2.389-.224 3.127-.672.738-.447 1.283-.984 1.636-1.607.353-.625.569-1.256.649-1.896.08-.64.121-1.152.121-1.536v-2.544c-.289.256-.649.457-1.082.6z"/>
  <path d="M126.417 99.715v3.844h-19.104v10.906h17.808v3.844h-17.808v11.844h19.248v3.844h-23.81V99.715h23.666z"/>
  <path d="M151.377 132.414c-1.857 1.409-4.195 2.113-7.014 2.113-1.986 0-3.708-.32-5.166-.959-1.458-.641-2.683-1.535-3.676-2.688-.993-1.15-1.738-2.525-2.234-4.125s-.777-3.342-.841-5.229c0-1.887.288-3.614.864-5.181.576-1.568 1.385-2.928 2.425-4.078 1.04-1.152 2.272-2.047 3.697-2.688 1.425-.639 2.985-.959 4.683-.959 2.209 0 4.042.455 5.498 1.366s2.625 2.069 3.505 3.476 1.489 2.939 1.825 4.601c.336 1.661.472 3.243.408 4.745h-18.594c-.032 1.088.096 2.119.385 3.095.288.976.753 1.839 1.395 2.591.641.752 1.458 1.352 2.453 1.799.994.448 2.165.672 3.511.672 1.731 0 3.149-.399 4.256-1.199 1.106-.799 1.836-2.014 2.188-3.645h4.032c-.543 2.786-1.744 4.884-3.6 6.293zm-.986-15.932c-.369-.863-.866-1.606-1.491-2.23-.625-.623-1.362-1.118-2.212-1.486-.85-.367-1.787-.551-2.812-.551-1.058 0-2.012.184-2.861.551-.85.368-1.579.871-2.188 1.511s-1.09 1.383-1.442 2.229c-.353.848-.561 1.75-.625 2.709h14.281c-.065-.959-.282-1.869-.65-2.733z"/>
  <path d="M127.939 158.715v6.344h-18.096v7.344h16.608v5.844h-16.608v8.406h18.48v6.344h-26.011v-34.281h25.627z"/>
  <path d="M138.85 187.041c1.024.991 2.496 1.486 4.417 1.486 1.376 0 2.56-.344 3.552-1.033.992-.688 1.6-1.417 1.824-2.186h6c-.96 2.979-2.432 5.109-4.416 6.391-1.984 1.281-4.384 1.922-7.2 1.922-1.952 0-3.712-.312-5.279-.936-1.568-.623-2.896-1.51-3.983-2.662-1.088-1.15-1.927-2.525-2.519-4.125-.592-1.599-.887-3.357-.887-5.276 0-1.854.304-3.581.912-5.181.607-1.598 1.471-2.981 2.59-4.148s2.455-2.086 4.007-2.758 3.271-1.008 5.16-1.008c2.112 0 3.952.408 5.52 1.223 1.568.815 2.856 1.91 3.864 3.284s1.736 2.94 2.184 4.698.608 3.596.48 5.514H137.17c.096 2.206.656 3.805 1.68 4.795zm7.704-13.045c-.816-.896-2.056-1.344-3.72-1.344-1.088 0-1.992.184-2.712.553-.72.367-1.296.824-1.728 1.368-.432.544-.736 1.12-.912 1.728-.176.609-.28 1.152-.312 1.633h11.088c-.32-1.729-.888-3.041-1.704-3.938z"/>
  <path d="M191.61 99.715c3.262 0 5.813.801 7.652 2.403 1.84 1.603 2.76 3.797 2.76 6.584 0 2.083-.473 3.909-1.416 5.479s-2.455 2.643-4.534 3.22v.096c.992.192 1.8.513 2.424.96.624.447 1.12.982 1.488 1.606s.64 1.319.816 2.087c.176.768.312 1.566.408 2.397.063.831.111 1.679.144 2.542s.112 1.711.24 2.542.312 1.622.552 2.374.601 1.415 1.08 1.99h-5.088c-.32-.352-.536-.831-.648-1.438-.112-.607-.184-1.286-.216-2.038-.032-.751-.064-1.559-.096-2.422-.032-.862-.128-1.709-.288-2.541-.128-.831-.288-1.622-.48-2.373-.192-.752-.496-1.406-.912-1.967-.416-.559-.959-1.006-1.631-1.342s-1.566-.504-2.686-.504h-11.127v14.625h-4.562v-34.28h16.12zm.957 15.572c.959-.16 1.798-.473 2.517-.938s1.295-1.09 1.727-1.875.647-1.802.647-3.052c0-1.73-.479-3.14-1.438-4.229s-2.51-1.635-4.651-1.635h-11.316v11.969h9.494c1.054 0 2.061-.08 3.02-.24z"/>
  <path d="M213.77 109.197v5.229h.1c.996-2.016 2.215-3.502 3.654-4.461s3.264-1.407 5.473-1.344v4.312c-1.633 0-3.024.225-4.176.672-1.152.447-2.08 1.104-2.785 1.967-.703.863-1.216 1.911-1.535 3.143-.32 1.231-.48 2.646-.48 4.246v11.035h-4.094v-24.799h3.843z"/>
  <path d="M193.524 158.715c1.535 0 2.919.248 4.15.744s2.286 1.176 3.167 2.039c.879.864 1.551 1.863 2.015 3 .464 1.135.696 2.359.696 3.67 0 2.016-.424 3.76-1.271 5.231s-2.23 2.591-4.149 3.358v.097c.928.257 1.696.649 2.304 1.177.608.529 1.104 1.153 1.488 1.874s.664 1.513.84 2.378.296 1.729.36 2.594c.032.545.063 1.186.096 1.922s.088 1.49.168 2.258c.08.77.208 1.498.384 2.186.176.689.44 1.273.793 1.754h-7.534c-.415-1.089-.671-2.387-.767-3.893-.096-1.505-.239-2.946-.431-4.324-.256-1.794-.8-3.107-1.632-3.939-.832-.834-2.192-1.25-4.081-1.25h-7.537v13.406h-7.531v-34.281h18.472zm-2.686 15.5c1.728 0 3.023-.385 3.887-1.152.864-.77 1.296-2.019 1.296-3.748 0-1.665-.432-2.874-1.296-3.627-.864-.752-2.16-1.129-3.887-1.129h-8.254v9.656h8.254z"/>
  <path d="M213.394 168.175v4.608h.099c.322-.77.757-1.482 1.301-2.139.544-.657 1.168-1.218 1.872-1.683.704-.464 1.456-.825 2.256-1.081s1.632-.385 2.496-.385c.448 0 .944.08 1.488.24v6.344c-.32-.064-.704-.12-1.152-.168s-.88-.072-1.296-.072c-1.248 0-2.305.208-3.168.624-.864.416-1.561.984-2.088 1.704-.528.721-.904 1.561-1.128 2.521-.224.96-.336 2-.336 3.12v11.187h-6.812v-24.821h6.468z"/>
  <g fill="#FF3725">
    <path d="M110.623 251.08v15.986l15.066-15.986h10.584l-15.066 15.23 16.524 23.332h-10.638l-11.61-17.334-4.86 4.914v12.42h-8.469V251.08h8.469z"/>
    <path d="M159.613 289.654v-3.888h-.162c-.973 1.622-2.233 2.793-3.781 3.514-1.549.721-3.133 1.081-4.753 1.081-2.053 0-3.736-.27-5.051-.811-1.314-.539-2.35-1.305-3.106-2.295-.756-.99-1.288-2.196-1.594-3.619-.306-1.422-.459-2.997-.459-4.726v-17.175h7.656v15.768c0 2.304.36 4.023 1.082 5.156.721 1.135 2.001 1.701 3.841 1.701 2.092 0 3.607-.621 4.545-1.863.938-1.242 1.407-3.285 1.407-6.129v-14.633h7.656v27.918h-7.281z"/>
    <path d="M180.387 261.723v3.888h.162c.972-1.624 2.232-2.806 3.781-3.546 1.548-.739 3.133-1.109 4.753-1.109 2.053 0 3.736.279 5.051.838s2.35 1.332 3.106 2.322c.756.99 1.287 2.197 1.593 3.62.307 1.423.459 2.999.459 4.728v17.18h-7.656v-15.768c0-2.303-.361-4.022-1.082-5.156-.722-1.134-2.002-1.701-3.841-1.701-2.092 0-3.607.621-4.545 1.863-.938 1.242-1.407 3.285-1.407 6.129v14.633h-7.656v-27.92h7.282z"/>
    <path d="M211.955 282.691c.342.597.783 1.085 1.322 1.465.541.379 1.161.66 1.863.84.702.182 1.432.271 2.188.271.539 0 1.105-.062 1.699-.189.594-.125 1.135-.323 1.621-.593.485-.27.891-.63 1.215-1.079.323-.449.485-1.016.485-1.699 0-1.152-.765-2.016-2.292-2.591-1.529-.575-3.66-1.151-6.393-1.727-1.115-.252-2.203-.548-3.264-.89s-2.005-.792-2.832-1.35-1.492-1.259-1.996-2.104c-.504-.845-.755-1.88-.755-3.103 0-1.799.351-3.273 1.052-4.424.701-1.152 1.627-2.061 2.778-2.726s2.446-1.133 3.884-1.403c1.439-.27 2.913-.404 4.424-.404 1.51 0 2.976.145 4.396.432 1.421.289 2.688.773 3.803 1.457 1.115.684 2.041 1.593 2.779 2.727.736 1.134 1.178 2.564 1.321 4.291h-7.281c-.108-1.477-.666-2.476-1.673-2.998-1.008-.521-2.195-.783-3.562-.783-.432 0-.9.027-1.404.081s-.963.171-1.376.351c-.414.18-.765.44-1.053.782s-.432.8-.432 1.375c0 .684.251 1.241.755 1.673s1.16.782 1.969 1.052c.81.27 1.735.513 2.778.728 1.043.217 2.104.449 3.183.701 1.115.252 2.203.559 3.264.918s2.005.836 2.832 1.429c.827.594 1.492 1.331 1.996 2.212.503.881.755 1.969.755 3.263 0 1.834-.368 3.372-1.106 4.612-.736 1.24-1.699 2.238-2.887 2.993-1.187.755-2.545 1.286-4.072 1.591-1.529.307-3.085.459-4.668.459-1.619 0-3.201-.162-4.748-.486s-2.922-.864-4.127-1.621c-1.205-.756-2.194-1.756-2.968-2.999s-1.196-2.802-1.268-4.675h7.281c.001.831.172 1.545.514 2.141z"/>
    <path d="M250.215 261.736v5.125H244.6v13.822c0 1.297.215 2.16.647 2.592.432.433 1.296.648 2.592.648.432 0 .846-.018 1.241-.054.396-.036.774-.09 1.135-.162v5.935c-.648.112-1.368.188-2.16.225s-1.566.057-2.322.057c-1.188 0-2.311-.081-3.371-.243s-1.995-.478-2.804-.944c-.809-.469-1.446-1.135-1.914-1.999s-.7-1.999-.7-3.403v-16.473h-4.645v-5.125h4.645v-8.375h7.656v8.375h5.615z"/>
    <path d="M261.922 251.08v14.53h.156c.973-1.624 2.215-2.806 3.729-3.546 1.514-.739 2.99-1.109 4.432-1.109 2.055 0 3.738.279 5.054.838s2.351 1.332 3.107 2.322 1.288 2.197 1.595 3.62c.306 1.423.459 2.999.459 4.728v17.18h-7.656v-15.768c0-2.303-.361-4.022-1.082-5.156-.722-1.134-2.002-1.701-3.842-1.701-2.092 0-3.607.621-4.545 1.863s-1.406 3.285-1.406 6.129v14.633h-7.656V251.08h7.655z"/>
    <path d="M287.702 265.848c.792-1.188 1.8-2.143 3.023-2.863 1.224-.72 2.601-1.232 4.13-1.539 1.529-.306 3.068-.459 4.617-.459 1.402 0 2.824.1 4.264.297s2.754.584 3.941 1.16c1.188.574 2.16 1.375 2.916 2.4.756 1.024 1.134 2.382 1.134 4.072v14.51c0 1.26.071 2.465.216 3.615.144 1.15.396 2.014.756 2.589l-7.775.013c-.145-.433-.262-.875-.352-1.326-.09-.45-.152-.91-.188-1.379-1.225 1.256-2.665 2.137-4.321 2.639s-3.35.754-5.078.754c-1.332 0-2.574-.162-3.727-.485s-2.161-.827-3.025-1.511c-.864-.683-1.539-1.545-2.025-2.588s-.729-2.284-.729-3.723c0-1.582.279-2.886.838-3.91.559-1.025 1.279-1.844 2.162-2.455s1.892-1.069 3.026-1.375 2.279-.549 3.433-.729 2.288-.323 3.405-.432c1.117-.107 2.107-.27 2.973-.484.865-.217 1.549-.531 2.054-.944s.739-1.017.703-1.808c0-.826-.136-1.482-.405-1.969-.271-.484-.632-.863-1.082-1.133-.451-.27-.975-.449-1.569-.539s-1.235-.135-1.921-.135c-1.515 0-2.705.324-3.57.974s-1.371 1.731-1.515 3.245h-7.656c.106-1.801.555-3.295 1.347-4.482zm15.152 10.806c-.488.162-1.012.297-1.57.405-.561.108-1.146.198-1.76.271-.614.072-1.229.162-1.842.27-.577.108-1.146.252-1.705.432-.56.181-1.047.424-1.463.729-.414.306-.748.693-1.001 1.161s-.379 1.062-.379 1.781c0 .685.126 1.261.379 1.729.253.469.595.838 1.028 1.107s.939.459 1.517.566c.577.108 1.173.162 1.787.162 1.516 0 2.688-.252 3.519-.756s1.444-1.107 1.842-1.809c.396-.703.641-1.414.73-2.133.09-.721.136-1.297.136-1.729v-2.862c-.326.29-.732.514-1.218.676z"/>
    <path d="M325.914 251.08v38.562h-7.656V251.08h7.656z"/>
    <path d="M340.223 251.08v38.562h-7.656V251.08h7.656z"/>
    <path d="M354.861 282.939c1.151 1.115 2.807 1.672 4.967 1.672 1.549 0 2.881-.388 3.996-1.163 1.117-.775 1.801-1.597 2.053-2.462h6.75c-1.08 3.349-2.736 5.743-4.969 7.184-2.231 1.44-4.932 2.16-8.1 2.16-2.196 0-4.176-.352-5.938-1.053-1.763-.702-3.256-1.701-4.478-2.997-1.223-1.296-2.166-2.844-2.83-4.644-.666-1.8-.998-3.779-.998-5.939 0-2.088.342-4.033 1.024-5.832.683-1.801 1.653-3.357 2.911-4.671s2.76-2.349 4.506-3.104c1.744-.756 3.679-1.135 5.803-1.135 2.376 0 4.446.459 6.211 1.379 1.764.918 3.213 2.152 4.346 3.702 1.135 1.55 1.953 3.315 2.457 5.297s.684 4.054.541 6.216H352.97c.108 2.48.739 4.277 1.891 5.39zm8.666-14.691c-.918-1.008-2.312-1.512-4.185-1.512-1.224 0-2.241.207-3.052.621-.81.414-1.457.927-1.943 1.538-.486.612-.828 1.26-1.025 1.943-.199.684-.315 1.296-.352 1.835h12.475c-.361-1.943-1-3.417-1.918-4.425z"/>
  </g>
</svg>