<?xml version="1.0" encoding="utf-8"?>
<!-- Generator: Adobe Illustrator 12.0.1, SVG Export Plug-In . SVG Version: 6.00 Build 51448)  -->
<!DOCTYPE svg PUBLIC "-//W3C//DTD SVG 1.1//EN" "http://www.w3.org/Graphics/SVG/1.1/DTD/svg11.dtd" [
	<!ENTITY ns_svg "http://www.w3.org/2000/svg">
	<!ENTITY ns_xlink "http://www.w3.org/1999/xlink">
]>
<svg  version="1.1" id="Layer_1" xmlns="&ns_svg;" xmlns:xlink="&ns_xlink;" width="198" height="234" viewBox="0 0 198 234"
	 overflow="visible" enable-background="new 0 0 198 234" xml:space="preserve">
<g>
	<rect fill-rule="evenodd" clip-rule="evenodd" fill="#FFFFFF" width="198" height="234"/>
	<path fill-rule="evenodd" clip-rule="evenodd" fill="#E9E4D1" d="M0,0h198v156H0V0z M0,0"/>
	<rect y="156" fill-rule="evenodd" clip-rule="evenodd" fill="#CEC498" width="198" height="78"/>
	<g>
		<path fill="#414142" d="M14.386,13.898v-0.844c1.768,0.062,3.167,0.094,4.196,0.094c0.686,0,1.416-0.01,2.19-0.031l2.072-0.078
			c0.229-0.01,0.44-0.016,0.633-0.016c1.398,0,2.498,0.154,3.299,0.462c0.801,0.309,1.425,0.799,1.874,1.472
			c0.448,0.674,0.673,1.441,0.673,2.305c0,0.774-0.187,1.545-0.561,2.311c-0.374,0.766-0.917,1.414-1.63,1.947
			c-0.713,0.532-1.456,0.912-2.23,1.142c-0.528,0.158-1.126,0.237-1.794,0.237c-0.563,0-1.17-0.062-1.821-0.188l-0.276-0.973
			c0.783,0.185,1.399,0.277,1.848,0.277c0.66,0,1.287-0.161,1.881-0.482c0.594-0.322,1.056-0.807,1.386-1.454
			s0.495-1.362,0.495-2.147c0-0.757-0.161-1.441-0.481-2.054s-0.809-1.077-1.464-1.395c-0.655-0.317-1.448-0.476-2.38-0.476
			c-0.835,0-1.732,0.151-2.69,0.453c-0.083,0.932-0.125,2.39-0.125,4.375v6.641c0,1.195,0.016,2.359,0.047,3.492
			c0.026,0.834,0.09,1.331,0.19,1.489c0.101,0.158,0.264,0.274,0.487,0.349c0.224,0.075,0.857,0.121,1.9,0.139v0.844
			c-1.627-0.062-2.824-0.094-3.589-0.094c-0.299,0-1.676,0.031-4.13,0.094v-0.844c1.034-0.018,1.664-0.063,1.892-0.139
			c0.228-0.074,0.385-0.178,0.473-0.31c0.105-0.176,0.171-0.603,0.197-1.278c0.01-0.186,0.031-1.434,0.062-3.745V19.37
			c0-1.195-0.016-2.364-0.047-3.507c-0.026-0.836-0.09-1.33-0.191-1.483c-0.101-0.154-0.263-0.269-0.487-0.343
			C16.063,13.962,15.43,13.916,14.386,13.898z"/>
		<path fill="#414142" d="M32.711,22.758l-0.699-0.185c0.009-0.202,0.013-0.479,0.013-0.832c0-0.369-0.004-0.664-0.013-0.884
			c1.119-0.73,2.035-1.224,2.749-1.479c0.547-0.185,1.159-0.277,1.837-0.277c1.004,0,1.85,0.189,2.538,0.567
			c0.687,0.378,1.198,0.919,1.533,1.622c0.229,0.492,0.343,1.165,0.343,2.019l-0.062,2.413v3.932c0,0.422,0.035,0.726,0.105,0.91
			c0.053,0.132,0.136,0.229,0.25,0.29c0.088,0.053,0.272,0.088,0.553,0.105l0.856,0.079v0.75c-0.719-0.062-1.351-0.094-1.895-0.094
			c-0.526,0-1.228,0.031-2.105,0.094l0.062-2.326c-1.796,1.354-2.861,2.116-3.196,2.288c-0.334,0.171-0.757,0.257-1.268,0.257
			c-1.065,0-1.895-0.283-2.489-0.85c-0.594-0.566-0.891-1.32-0.891-2.26c0-0.605,0.103-1.159,0.31-1.66
			c0.207-0.5,0.456-0.898,0.746-1.192c0.291-0.294,0.586-0.512,0.885-0.652c0.511-0.237,1.34-0.491,2.489-0.764
			s2.287-0.475,3.414-0.606c0.009-0.835-0.093-1.485-0.304-1.951s-0.568-0.849-1.07-1.147c-0.502-0.299-1.115-0.448-1.837-0.448
			c-0.52,0-0.976,0.07-1.368,0.211s-0.632,0.26-0.72,0.355l-0.238,0.476C33.002,22.046,32.826,22.459,32.711,22.758z M38.778,24.82
			c-1.144,0.193-2.12,0.409-2.929,0.646c-0.81,0.237-1.381,0.484-1.716,0.738c-0.202,0.15-0.378,0.375-0.527,0.674
			c-0.229,0.439-0.343,0.928-0.343,1.464c0,0.651,0.18,1.159,0.541,1.524c0.361,0.364,0.862,0.547,1.504,0.547
			c0.589,0,1.172-0.169,1.748-0.508s1.15-0.847,1.722-1.523V24.82z"/>
	</g>
	<g>
		<path fill="#414142" d="M44.558,31.789v-0.75l1.236-0.014c0.193-0.008,0.34-0.041,0.44-0.099c0.101-0.057,0.178-0.13,0.23-0.218
			c0.096-0.176,0.153-0.487,0.171-0.936c0.009-0.114,0.04-1.375,0.094-3.783v-5.47c0-1.468-0.021-2.983-0.062-4.548
			c-0.035-1.055-0.084-1.643-0.146-1.766c-0.045-0.088-0.115-0.15-0.212-0.186c-0.133-0.061-0.743-0.092-1.83-0.092v-0.781
			c1.983-0.246,3.361-0.553,4.133-0.921c0.114-0.053,0.202-0.079,0.264-0.079s0.109,0.02,0.145,0.06
			c0.035,0.039,0.053,0.095,0.053,0.165c0,0.061-0.009,0.148-0.025,0.264l-0.013,0.435c-0.043,1.573-0.068,2.913-0.077,4.021
			l-0.025,2.057v6.842c0.035,2.285,0.056,3.52,0.062,3.704c0.009,0.439,0.062,0.761,0.159,0.962c0.035,0.08,0.088,0.147,0.159,0.205
			c0.071,0.057,0.177,0.104,0.318,0.139c0.062,0.008,0.553,0.021,1.473,0.039v0.75c-1.194-0.062-2.244-0.094-3.148-0.094
			C47.096,31.695,45.963,31.727,44.558,31.789z"/>
	</g>
	<g>
		<path fill="#414142" d="M55.134,22.758l-0.699-0.185c0.009-0.202,0.013-0.479,0.013-0.832c0-0.369-0.004-0.664-0.013-0.884
			c1.119-0.73,2.035-1.224,2.749-1.479c0.546-0.185,1.158-0.277,1.837-0.277c1.004,0,1.85,0.189,2.537,0.567
			c0.688,0.378,1.198,0.919,1.533,1.622c0.229,0.492,0.344,1.165,0.344,2.019l-0.062,2.413v3.932c0,0.422,0.035,0.726,0.105,0.91
			c0.053,0.132,0.136,0.229,0.25,0.29c0.088,0.053,0.272,0.088,0.554,0.105l0.856,0.079v0.75c-0.719-0.062-1.351-0.094-1.895-0.094
			c-0.526,0-1.229,0.031-2.105,0.094l0.062-2.326c-1.796,1.354-2.861,2.116-3.196,2.288c-0.334,0.171-0.757,0.257-1.268,0.257
			c-1.065,0-1.895-0.283-2.489-0.85c-0.595-0.566-0.892-1.32-0.892-2.26c0-0.605,0.104-1.159,0.311-1.66
			c0.207-0.5,0.455-0.898,0.746-1.192c0.29-0.294,0.585-0.512,0.885-0.652c0.51-0.237,1.34-0.491,2.489-0.764
			s2.287-0.475,3.414-0.606c0.009-0.835-0.093-1.485-0.304-1.951s-0.568-0.849-1.071-1.147c-0.502-0.299-1.114-0.448-1.837-0.448
			c-0.52,0-0.976,0.07-1.368,0.211s-0.632,0.26-0.72,0.355l-0.238,0.476C55.424,22.046,55.249,22.459,55.134,22.758z M61.201,24.82
			c-1.144,0.193-2.12,0.409-2.93,0.646c-0.809,0.237-1.381,0.484-1.715,0.738c-0.203,0.15-0.379,0.375-0.528,0.674
			c-0.229,0.439-0.343,0.928-0.343,1.464c0,0.651,0.18,1.159,0.541,1.524c0.36,0.364,0.862,0.547,1.504,0.547
			c0.59,0,1.173-0.169,1.749-0.508s1.15-0.847,1.722-1.523V24.82z"/>
		<path fill="#414142" d="M66.928,21.461v-0.554c0.845-0.335,1.517-0.635,2.016-0.899c0-2.089,0-3.423,0-4.002
			c0.915-0.316,1.658-0.654,2.23-1.014l0.316,0.264c-0.096,0.728-0.2,2.332-0.312,4.814c0.704,0.009,1.127,0.014,1.268,0.014
			c0.079,0,0.532-0.009,1.36-0.026c0.457-0.008,0.801-0.024,1.029-0.05l0.093,0.093l-0.277,1.235
			c-0.555-0.009-1.065-0.014-1.532-0.014s-1.114,0.005-1.941,0.014l-0.062,5.354c-0.026,1.308-0.018,2.088,0.026,2.343
			c0.044,0.254,0.127,0.476,0.25,0.664s0.283,0.34,0.48,0.454s0.532,0.201,1.005,0.263c0.359,0,0.65-0.016,0.874-0.046
			c0.224-0.031,0.506-0.108,0.848-0.231l0.158,0.521c-0.414,0.325-0.814,0.664-1.201,1.016c-0.334,0.123-0.646,0.204-0.937,0.243
			c-0.291,0.04-0.625,0.06-1.003,0.06c-0.467,0-0.838-0.053-1.115-0.158c-0.277-0.105-0.53-0.252-0.759-0.441
			c-0.229-0.188-0.418-0.428-0.568-0.718c-0.15-0.29-0.248-0.746-0.292-1.37c0.008-0.597,0.025-1.251,0.05-1.963
			c0.009-0.141,0.013-0.294,0.013-0.461v-5.467h-0.54C67.964,21.398,67.473,21.42,66.928,21.461z"/>
		<path fill="#414142" d="M76.259,20.945v-0.75c1.707-0.193,3.142-0.563,4.303-1.109l0.291,0.211
			c-0.073,1.871-0.109,3.304-0.109,4.296v2.399c0.044,2.283,0.07,3.518,0.079,3.703c0.009,0.439,0.057,0.76,0.145,0.962
			c0.044,0.079,0.101,0.146,0.171,0.204c0.07,0.057,0.176,0.104,0.316,0.139c0.053,0.008,0.54,0.021,1.461,0.039v0.75
			c-1.336-0.062-2.403-0.094-3.203-0.094c-0.703,0-1.854,0.031-3.453,0.094v-0.75l1.26-0.014c0.186-0.008,0.33-0.041,0.431-0.099
			c0.102-0.057,0.179-0.129,0.232-0.217c0.097-0.176,0.159-0.487,0.186-0.936c0-0.114,0.021-1.375,0.062-3.782v-2.319
			c0-1.309-0.044-2.086-0.132-2.332c-0.053-0.132-0.147-0.23-0.283-0.297C77.88,20.979,77.294,20.945,76.259,20.945z M79.485,13.211
			c0.413,0,0.763,0.146,1.049,0.436c0.286,0.29,0.429,0.643,0.429,1.056c0,0.404-0.146,0.752-0.436,1.042
			c-0.29,0.291-0.638,0.436-1.042,0.436c-0.414,0-0.766-0.145-1.056-0.436c-0.291-0.29-0.436-0.638-0.436-1.042
			c0-0.413,0.145-0.766,0.436-1.056C78.719,13.356,79.071,13.211,79.485,13.211z"/>
		<path fill="#414142" d="M84.438,31.789v-0.75l1.26-0.014c0.186-0.008,0.33-0.041,0.431-0.099c0.102-0.057,0.179-0.13,0.232-0.218
			c0.097-0.176,0.159-0.488,0.186-0.937c0-0.114,0.021-1.377,0.062-3.787v-1.569c0-0.704-0.016-1.461-0.047-2.27
			c-0.026-0.52-0.068-0.827-0.125-0.924c-0.057-0.097-0.155-0.17-0.295-0.218c-0.14-0.049-0.708-0.068-1.705-0.06v-0.75
			c1.773-0.246,3.068-0.566,3.885-0.962c0.175-0.088,0.294-0.132,0.355-0.132s0.109,0.021,0.145,0.066
			c0.035,0.043,0.053,0.109,0.053,0.197c0,0.062-0.005,0.132-0.014,0.211c-0.026,0.316-0.053,0.984-0.08,2.003l2.452-2.098
			c0.721-0.264,1.401-0.396,2.043-0.396c0.712,0,1.387,0.146,2.023,0.436c0.638,0.29,1.116,0.655,1.438,1.095
			c0.32,0.44,0.534,0.994,0.639,1.663c0.062,0.396,0.092,1.499,0.092,3.311v2.336c0,1.144,0.031,1.922,0.094,2.335
			c0.044,0.264,0.112,0.446,0.205,0.548c0.092,0.101,0.235,0.164,0.429,0.191l1.413,0.039v0.75
			c-0.863-0.062-1.581-0.094-2.153-0.094c-0.493,0-1.312,0.031-2.457,0.094c0.125-2.172,0.188-3.544,0.188-4.116v-2.216
			c0-1.381-0.053-2.287-0.158-2.718c-0.149-0.589-0.488-1.064-1.015-1.425s-1.165-0.541-1.911-0.541
			c-0.659,0-1.261,0.156-1.806,0.469c-0.545,0.312-0.934,0.672-1.166,1.081c-0.233,0.409-0.35,1.098-0.35,2.065v1.597
			c0.042,2.287,0.062,3.523,0.062,3.708c0.018,0.439,0.071,0.761,0.159,0.963c0.036,0.079,0.089,0.147,0.16,0.205
			c0.071,0.057,0.181,0.104,0.333,0.139c0.053,0.008,0.54,0.021,1.461,0.039v0.75c-1.071-0.062-2.041-0.094-2.91-0.094
			C87.309,31.695,86.106,31.727,84.438,31.789z"/>
		<path fill="#414142" d="M101.209,25.715c0-1.971,0.626-3.578,1.879-4.824c1.254-1.244,2.86-1.867,4.821-1.867
			c1.847,0,3.351,0.581,4.511,1.742c1.161,1.162,1.742,2.662,1.742,4.5c0,1.285-0.299,2.46-0.897,3.524
			c-0.599,1.065-1.442,1.898-2.532,2.501c-1.091,0.603-2.291,0.904-3.602,0.904c-1.02,0-1.885-0.172-2.592-0.515
			c-0.708-0.343-1.281-0.774-1.721-1.294c-0.44-0.519-0.775-1.051-1.004-1.597C101.41,27.831,101.209,26.807,101.209,25.715z
			 M103.693,24.742c0,1.081,0.18,2.181,0.541,3.297c0.361,1.117,0.883,1.933,1.564,2.447s1.424,0.771,2.225,0.771
			c1.021,0,1.875-0.404,2.562-1.213c0.687-0.81,1.03-2.054,1.03-3.733c0-1.398-0.205-2.605-0.615-3.621
			c-0.408-1.016-0.93-1.731-1.564-2.149c-0.633-0.418-1.333-0.627-2.099-0.627c-1.083,0-1.96,0.392-2.634,1.174
			C104.029,21.871,103.693,23.089,103.693,24.742z"/>
	</g>
	<g>
		<path fill="#414142" d="M15.794,169.971l-0.518-0.137c0.006-0.149,0.01-0.354,0.01-0.615c0-0.272-0.003-0.49-0.01-0.653
			c0.829-0.54,1.509-0.904,2.038-1.093c0.404-0.137,0.858-0.205,1.361-0.205c0.745,0,1.372,0.14,1.881,0.42
			c0.509,0.279,0.888,0.68,1.136,1.199c0.17,0.364,0.255,0.861,0.255,1.492l-0.047,1.785v2.907c0,0.312,0.026,0.537,0.078,0.673
			c0.039,0.098,0.102,0.17,0.187,0.215c0.065,0.039,0.202,0.065,0.411,0.078l0.637,0.059v0.562
			c-0.534-0.041-1.003-0.062-1.406-0.062c-0.391,0-0.912,0.021-1.562,0.062l0.047-1.713c-1.331,1.002-2.12,1.567-2.368,1.694
			s-0.561,0.19-0.939,0.19c-0.789,0-1.404-0.21-1.845-0.63c-0.44-0.421-0.66-0.979-0.66-1.677c0-0.449,0.077-0.859,0.23-1.23
			s0.337-0.666,0.553-0.885s0.434-0.379,0.656-0.483c0.378-0.176,0.993-0.365,1.845-0.567c0.851-0.201,1.694-0.352,2.529-0.449
			c0.006-0.618-0.069-1.1-0.226-1.444s-0.421-0.628-0.794-0.849c-0.372-0.222-0.826-0.332-1.362-0.332
			c-0.385,0-0.724,0.053-1.014,0.156c-0.291,0.104-0.469,0.191-0.534,0.264l-0.176,0.351
			C16.01,169.444,15.879,169.75,15.794,169.971z M20.292,171.502c-0.849,0.144-1.574,0.303-2.174,0.479s-1.025,0.358-1.273,0.547
			c-0.15,0.111-0.281,0.277-0.392,0.498c-0.17,0.326-0.255,0.688-0.255,1.084c0,0.482,0.134,0.857,0.401,1.128
			s0.64,0.405,1.117,0.405c0.437,0,0.87-0.125,1.297-0.375c0.428-0.249,0.854-0.624,1.278-1.123V171.502z"/>
		<path fill="#414142" d="M27.749,176.705c0.079-0.82,0.122-1.337,0.128-1.552c0.04-1.412,0.06-2.242,0.06-2.489v-4.344
			c0-1.087-0.016-2.209-0.047-3.368c-0.026-0.78-0.062-1.217-0.107-1.308c-0.032-0.064-0.084-0.11-0.156-0.137
			c-0.098-0.045-0.546-0.068-1.346-0.068v-0.562c1.457-0.188,2.469-0.423,3.037-0.705c0.083-0.04,0.148-0.061,0.193-0.061
			c0.045,0,0.081,0.015,0.106,0.044c0.026,0.029,0.039,0.07,0.039,0.122c0,0.046-0.007,0.111-0.021,0.195l-0.011,0.322
			c-0.035,1.165-0.056,2.158-0.062,2.978l-0.016,1.523v1.933l1.353-1.32c0.177-0.15,0.467-0.297,0.873-0.441
			c0.405-0.143,0.836-0.215,1.294-0.215c0.719,0,1.355,0.168,1.911,0.504s0.982,0.811,1.279,1.424
			c0.298,0.613,0.446,1.293,0.446,2.036c0,0.574-0.085,1.119-0.255,1.635c-0.169,0.516-0.388,0.976-0.655,1.38
			c-0.196,0.307-0.362,0.516-0.499,0.626l-1.43,1.028c-0.581,0.431-1.034,0.706-1.36,0.827c-0.326,0.12-0.744,0.181-1.253,0.181
			c-0.438,0-0.842-0.059-1.214-0.176s-0.767-0.323-1.184-0.617l-0.781,0.73L27.749,176.705z M29.545,170.406v3.668
			c0,0.326,0.018,0.534,0.054,0.625c0.036,0.092,0.146,0.213,0.33,0.362c0.275,0.229,0.594,0.411,0.958,0.548
			c0.364,0.137,0.749,0.205,1.155,0.205c0.95,0,1.68-0.365,2.191-1.096c0.511-0.729,0.767-1.633,0.767-2.708
			c0-0.763-0.121-1.401-0.363-1.917c-0.243-0.515-0.577-0.901-1.002-1.158c-0.426-0.258-0.904-0.387-1.435-0.387
			c-0.623,0-1.179,0.178-1.67,0.533S29.709,169.879,29.545,170.406z"/>
		<path fill="#414142" d="M48.816,175.543l-0.389,0.654c-0.448,0.242-0.892,0.418-1.329,0.529c-0.438,0.11-0.933,0.166-1.485,0.166
			c-1.363,0-2.449-0.411-3.256-1.234c-0.809-0.822-1.212-1.952-1.212-3.39c0-0.761,0.109-1.423,0.326-1.985s0.485-0.997,0.803-1.303
			c0.214-0.215,0.621-0.492,1.222-0.834s1.021-0.561,1.261-0.658c0.441-0.188,0.971-0.283,1.587-0.283
			c0.584,0,1.11,0.062,1.577,0.187c0.299,0.078,0.598,0.209,0.896,0.392c-0.075,0.503-0.128,0.883-0.16,1.141
			c-0.031,0.259-0.072,0.727-0.122,1.406h-0.562c-0.039-0.629-0.078-1.021-0.117-1.176c-0.026-0.098-0.084-0.186-0.175-0.263
			c-0.233-0.182-0.533-0.339-0.899-0.472s-0.766-0.199-1.2-0.199c-0.544,0-1.016,0.112-1.414,0.336s-0.708,0.578-0.928,1.064
			c-0.221,0.487-0.331,1.09-0.331,1.811c0,0.882,0.155,1.68,0.466,2.393c0.311,0.713,0.733,1.234,1.268,1.562
			s1.132,0.491,1.792,0.491c0.33,0,0.652-0.041,0.966-0.122c0.314-0.082,0.717-0.237,1.209-0.466L48.816,175.543z"/>
		<path fill="#414142" d="M58.649,163.393v-0.562c0.72-0.078,1.329-0.17,1.825-0.277s0.981-0.238,1.455-0.395l0.126,0.088
			c-0.022,0.554-0.048,1.621-0.076,3.204l-0.034,1.563v6.114c0,0.665,0.011,1.239,0.034,1.725s0.063,0.774,0.122,0.869
			s0.157,0.171,0.293,0.229s0.544,0.117,1.222,0.176v0.531c-0.796-0.041-1.357-0.062-1.684-0.062c-0.281,0-0.855,0.021-1.723,0.062
			c0.019-0.449,0.034-1.055,0.047-1.816c-0.261,0.188-0.612,0.472-1.052,0.85c-0.44,0.377-0.784,0.687-1.032,0.928
			c-0.522,0.13-0.982,0.195-1.38,0.195c-0.737,0-1.416-0.182-2.035-0.547c-0.62-0.365-1.098-0.894-1.434-1.588
			c-0.336-0.693-0.504-1.473-0.504-2.339c0-0.651,0.103-1.269,0.308-1.851c0.206-0.583,0.465-1.034,0.778-1.354
			c0.176-0.182,0.577-0.459,1.204-0.83s1.133-0.64,1.522-0.806c0.388-0.166,0.811-0.249,1.267-0.249
			c0.411,0,0.814,0.051,1.208,0.151s0.778,0.256,1.15,0.464v-2.569c0-0.905-0.039-1.456-0.117-1.651
			c-0.026-0.071-0.075-0.123-0.146-0.156C59.865,163.432,59.417,163.399,58.649,163.393z M60.259,169.532
			c-0.444-0.487-0.91-0.844-1.396-1.068s-0.965-0.337-1.436-0.337c-0.536,0-1.029,0.137-1.48,0.41
			c-0.45,0.273-0.795,0.687-1.033,1.239c-0.239,0.554-0.358,1.217-0.358,1.991c0,1.191,0.297,2.121,0.892,2.791
			c0.594,0.671,1.31,1.006,2.146,1.006c0.438,0,0.829-0.091,1.176-0.273c0.346-0.182,0.649-0.449,0.911-0.8
			c0.262-0.352,0.428-0.742,0.5-1.172c0.053-0.286,0.079-0.992,0.079-2.118V169.532z"/>
		<path fill="#414142" d="M75.667,175.139l-0.312,0.703c-0.449,0.281-0.777,0.469-0.985,0.56c-0.306,0.138-0.655,0.254-1.048,0.349
			s-0.808,0.143-1.244,0.143c-0.858,0-1.635-0.18-2.332-0.537c-0.695-0.357-1.237-0.894-1.624-1.606s-0.58-1.548-0.58-2.505
			c0-0.748,0.103-1.424,0.307-2.026s0.437-1.046,0.697-1.333c0.188-0.208,0.481-0.447,0.877-0.718s0.79-0.483,1.181-0.64
			c0.513-0.215,1.069-0.322,1.667-0.322c0.729,0,1.387,0.166,1.975,0.498c0.588,0.333,1.019,0.786,1.292,1.359
			s0.41,1.222,0.41,1.945c0,0.182-0.016,0.403-0.047,0.664c-0.467,0.091-0.886,0.148-1.256,0.174
			c-0.701,0.053-1.402,0.078-2.104,0.078h-3.125c0.013,0.933,0.174,1.688,0.482,2.266c0.309,0.577,0.734,1.003,1.277,1.276
			c0.543,0.274,1.107,0.411,1.692,0.411c0.396,0,0.792-0.064,1.185-0.193s0.879-0.366,1.458-0.711L75.667,175.139z M69.417,171.158
			c0.182,0.021,0.526,0.042,1.034,0.062c0.969,0.033,1.635,0.049,1.999,0.049c0.865,0,1.434-0.016,1.707-0.049
			c0.006-0.156,0.01-0.277,0.01-0.362c0-1.032-0.208-1.789-0.624-2.272c-0.417-0.482-0.973-0.725-1.668-0.725
			c-0.735,0-1.327,0.264-1.775,0.793C69.65,169.182,69.423,170.018,69.417,171.158z"/>
		<path fill="#414142" d="M80.171,169.002v-0.387c0.506-0.207,0.954-0.428,1.344-0.66v-0.589c0-0.851,0.054-1.451,0.161-1.802
			c0.107-0.35,0.259-0.662,0.455-0.938c0.293-0.402,0.756-0.916,1.388-1.541c0.423-0.409,0.737-0.666,0.939-0.77
			c0.267-0.137,0.58-0.205,0.938-0.205c0.254,0,0.515,0.042,0.782,0.127l0.039,1.617l-0.225,0.088
			c-0.202-0.169-0.402-0.293-0.6-0.371c-0.199-0.078-0.431-0.117-0.698-0.117c-0.352,0-0.638,0.072-0.859,0.216
			s-0.382,0.35-0.483,0.618c-0.101,0.268-0.151,0.813-0.151,1.637v2.029h1.037c0.522,0,1.034-0.021,1.537-0.062l0.098,0.058
			l-0.196,0.989c-0.568-0.025-0.985-0.039-1.252-0.039c-0.274,0-0.682,0.014-1.224,0.039v3.495c0,0.43,0.016,1.214,0.047,2.353
			c0.006,0.404,0.022,0.661,0.049,0.771c0.026,0.111,0.06,0.19,0.103,0.239c0.042,0.049,0.112,0.09,0.21,0.122
			c0.195,0.059,0.723,0.117,1.583,0.176v0.562c-1.519-0.041-2.444-0.062-2.776-0.062c-0.3,0-1.137,0.021-2.512,0.062v-0.562
			l0.934-0.01c0.138-0.006,0.244-0.031,0.319-0.073s0.133-0.096,0.172-0.161c0.072-0.13,0.118-0.361,0.138-0.693
			c0-0.084,0.016-1.019,0.047-2.802v-3.417L80.171,169.002z"/>
		<path fill="#414142" d="M99.709,168.033l0.079,0.188c-0.255,0.387-0.422,0.652-0.5,0.797h-1.818
			c0.149,0.382,0.225,0.741,0.225,1.078c0,0.492-0.128,0.973-0.384,1.441c-0.256,0.47-0.631,0.871-1.124,1.205
			c-0.493,0.333-1.019,0.559-1.576,0.675c-0.363,0.077-0.853,0.11-1.469,0.097c-0.42,0.335-0.685,0.586-0.794,0.753
			c-0.071,0.116-0.106,0.241-0.106,0.377c0,0.154,0.047,0.291,0.141,0.41c0.093,0.119,0.237,0.202,0.432,0.249
			c0.292,0.081,0.811,0.121,1.557,0.121l2.103-0.047c0.733,0,1.289,0.096,1.669,0.289c0.379,0.191,0.66,0.485,0.842,0.88
			c0.182,0.394,0.272,0.839,0.272,1.335c0,0.671-0.22,1.354-0.659,2.049c-0.439,0.694-1.091,1.242-1.957,1.643
			s-1.834,0.602-2.908,0.602c-0.898,0-1.663-0.141-2.293-0.42c-0.631-0.279-1.098-0.654-1.4-1.123
			c-0.303-0.469-0.454-0.959-0.454-1.474c0-0.286,0.044-0.556,0.132-0.806c0.087-0.25,0.235-0.52,0.443-0.805
			c0.798-0.364,1.37-0.682,1.717-0.954c-0.537-0.176-0.881-0.341-1.033-0.497c-0.151-0.156-0.228-0.312-0.228-0.468
			c0-0.13,0.098-0.48,0.293-1.053c0.319-0.267,0.821-0.643,1.506-1.13c-0.592-0.162-1.047-0.353-1.367-0.57
			c-0.318-0.218-0.567-0.514-0.744-0.888c-0.178-0.374-0.267-0.784-0.267-1.233c0-0.663,0.169-1.256,0.508-1.779
			c0.338-0.523,0.907-0.949,1.708-1.277c0.8-0.328,1.542-0.492,2.225-0.492c0.442,0,0.864,0.072,1.264,0.217
			c0.4,0.145,0.779,0.361,1.137,0.65C98.107,168.066,99.05,168.053,99.709,168.033z M94.593,176.76
			c-0.966,0-1.572,0.013-1.818,0.039c-0.123,0.02-0.263,0.084-0.418,0.194c-0.523,0.362-0.802,0.563-0.835,0.602
			c-0.066,0.065-0.139,0.198-0.217,0.398c-0.137,0.362-0.205,0.728-0.205,1.097c0,0.68,0.265,1.254,0.795,1.724
			c0.53,0.47,1.26,0.704,2.19,0.704c0.689,0,1.318-0.138,1.887-0.412c0.569-0.275,0.998-0.651,1.288-1.127s0.434-0.953,0.434-1.432
			c-0.02-0.415-0.083-0.729-0.189-0.942s-0.236-0.382-0.389-0.505s-0.361-0.223-0.627-0.301
			C96.333,176.779,95.701,176.766,94.593,176.76z M91.725,170.221c0,0.461,0.086,0.908,0.258,1.343s0.425,0.763,0.759,0.982
			c0.334,0.221,0.715,0.331,1.144,0.331c0.558,0,1.051-0.18,1.479-0.54c0.429-0.36,0.643-0.938,0.643-1.737
			c0-0.817-0.214-1.467-0.643-1.951c-0.428-0.482-0.943-0.725-1.547-0.725c-0.629,0-1.135,0.199-1.518,0.599
			S91.725,169.487,91.725,170.221z"/>
		<path fill="#414142" d="M102.93,176.658v-0.562l0.93-0.01c0.145-0.006,0.256-0.031,0.331-0.073s0.134-0.096,0.173-0.161
			c0.072-0.13,0.115-0.36,0.129-0.692c0.004-0.085,0.02-1.018,0.047-2.8v-5.043c0-1.086-0.016-2.207-0.047-3.365
			c-0.026-0.78-0.062-1.216-0.108-1.307c-0.032-0.065-0.085-0.111-0.157-0.137c-0.1-0.045-0.552-0.068-1.359-0.068v-0.562
			c1.471-0.188,2.492-0.423,3.064-0.705c0.084-0.04,0.15-0.061,0.195-0.061s0.082,0.015,0.107,0.044s0.039,0.07,0.039,0.122
			c0,0.046-0.006,0.111-0.018,0.195l-0.008,0.322c-0.029,1.165-0.045,2.158-0.051,2.978l-0.018,1.523v2.851
			c0.091-0.071,0.348-0.293,0.77-0.664c0.424-0.371,0.674-0.592,0.752-0.664c0.123-0.117,0.221-0.195,0.293-0.234
			c0.123-0.064,0.309-0.13,0.555-0.195c0.338-0.091,0.666-0.137,0.984-0.137c0.6,0,1.166,0.142,1.703,0.425
			c0.535,0.283,0.908,0.64,1.115,1.068c0.209,0.43,0.312,1.064,0.312,1.903v1.719l0.023,1.347c0.016,0.84,0.023,1.312,0.023,1.415
			c0.014,0.312,0.053,0.541,0.119,0.684c0.025,0.065,0.064,0.119,0.117,0.161s0.132,0.073,0.237,0.093
			c0.04,0.007,0.382,0.017,1.026,0.029v0.562c-0.739-0.041-1.277-0.062-1.615-0.062c-0.285,0-0.871,0.021-1.76,0.062
			c0.094-0.964,0.141-1.901,0.141-2.813v-2.422c0-0.756-0.056-1.3-0.167-1.632s-0.339-0.63-0.683-0.894s-0.799-0.396-1.369-0.396
			c-0.359,0-0.68,0.052-0.961,0.155c-0.281,0.103-0.54,0.259-0.775,0.467c-0.236,0.209-0.436,0.433-0.599,0.674
			c-0.079,0.117-0.131,0.259-0.157,0.425c-0.025,0.166-0.039,0.5-0.039,1.001v1.143c0.025,1.686,0.041,2.597,0.047,2.733
			c0.014,0.326,0.053,0.563,0.119,0.713c0.025,0.065,0.065,0.119,0.118,0.161s0.132,0.073,0.237,0.093
			c0.047,0.007,0.412,0.017,1.098,0.029v0.562c-1.16-0.041-1.961-0.062-2.404-0.062C105.057,176.596,104.22,176.617,102.93,176.658z
			"/>
		<path fill="#414142" d="M117.683,168.627v-0.562c1.261-0.145,2.319-0.42,3.177-0.828l0.214,0.156
			c-0.052,1.387-0.078,2.448-0.078,3.185v1.777c0.032,1.693,0.052,2.608,0.059,2.745c0.007,0.325,0.042,0.563,0.106,0.713
			c0.033,0.059,0.076,0.109,0.127,0.151c0.053,0.042,0.131,0.077,0.234,0.103c0.039,0.007,0.4,0.017,1.083,0.029v0.562
			c-0.987-0.041-1.776-0.062-2.368-0.062c-0.52,0-1.371,0.021-2.554,0.062v-0.562l0.934-0.01c0.138-0.006,0.243-0.031,0.319-0.073
			c0.075-0.042,0.133-0.096,0.172-0.161c0.072-0.129,0.117-0.36,0.138-0.691c0-0.085,0.016-1.018,0.047-2.799v-1.716
			c0-0.969-0.032-1.544-0.098-1.726c-0.039-0.098-0.108-0.171-0.21-0.22C118.884,168.651,118.449,168.627,117.683,168.627z
			 M120.055,162.908c0.307,0,0.566,0.107,0.778,0.323s0.318,0.477,0.318,0.783c0,0.3-0.108,0.559-0.323,0.773
			c-0.215,0.216-0.473,0.323-0.773,0.323c-0.307,0-0.568-0.107-0.783-0.323c-0.215-0.215-0.323-0.474-0.323-0.773
			c0-0.307,0.108-0.567,0.323-0.783S119.748,162.908,120.055,162.908z"/>
		<path fill="#414142" d="M125.334,182.164l-0.125-0.676c0.223,0.02,0.373,0.029,0.451,0.029c0.203,0,0.383-0.043,0.539-0.127
			c0.223-0.111,0.424-0.285,0.604-0.522c0.18-0.238,0.316-0.541,0.41-0.909c0.096-0.368,0.158-0.977,0.188-1.826
			c0.029-0.851,0.043-1.402,0.043-1.656v-5.481c0-0.169-0.016-0.596-0.047-1.28c-0.012-0.43-0.041-0.709-0.086-0.84
			c-0.026-0.064-0.068-0.117-0.125-0.156c-0.098-0.064-0.268-0.098-0.512-0.098c-0.354,0-0.634-0.003-0.84-0.01v-0.562
			c1.408-0.156,2.432-0.408,3.066-0.756c0.105-0.059,0.187-0.088,0.246-0.088c0.045,0,0.083,0.017,0.113,0.049
			c0.029,0.033,0.043,0.082,0.043,0.146c0,0.053-0.004,0.117-0.01,0.195c-0.023,0.176-0.041,0.442-0.057,0.801
			c-0.036,0.677-0.062,1.448-0.076,2.314c-0.029,1.27-0.045,1.985-0.045,2.147l0.047,2.686c0,1.725-0.131,2.991-0.393,3.798
			c-0.189,0.573-0.457,1.079-0.805,1.519c-0.347,0.439-0.715,0.769-1.104,0.986c-0.391,0.218-0.826,0.327-1.311,0.327
			C125.498,182.174,125.426,182.171,125.334,182.164z M128.248,162.908c0.307,0,0.566,0.107,0.78,0.323s0.321,0.477,0.321,0.783
			c0,0.3-0.107,0.559-0.321,0.773c-0.214,0.216-0.474,0.323-0.78,0.323c-0.299,0-0.557-0.107-0.775-0.323
			c-0.217-0.215-0.326-0.474-0.326-0.773c0-0.307,0.107-0.567,0.322-0.783S127.943,162.908,128.248,162.908z"/>
		<path fill="#414142" d="M133.734,176.658v-0.562l0.93-0.01c0.145-0.006,0.255-0.031,0.33-0.073
			c0.076-0.042,0.135-0.096,0.174-0.161c0.072-0.129,0.115-0.36,0.129-0.691c0.004-0.085,0.02-1.018,0.047-2.799v-4.047
			c0-1.085-0.016-2.207-0.047-3.363c-0.027-0.78-0.062-1.216-0.109-1.307c-0.032-0.065-0.084-0.111-0.156-0.137
			c-0.1-0.045-0.553-0.068-1.359-0.068v-0.562c1.463-0.188,2.48-0.423,3.051-0.705c0.084-0.04,0.148-0.061,0.193-0.061
			s0.082,0.015,0.107,0.044s0.039,0.07,0.039,0.122c0,0.046-0.008,0.111-0.02,0.195l-0.011,0.322
			c-0.033,1.165-0.054,2.158-0.06,2.978l-0.02,1.523v3.925l0.107,0.062c0.346-0.215,0.846-0.597,1.5-1.145
			c0.438-0.371,1.42-1.271,2.949-2.699c0.5,0.02,0.82,0.029,0.957,0.029c0.129,0,0.459-0.01,0.986-0.029v0.562
			c-0.379,0.02-0.621,0.046-0.725,0.078c-0.145,0.045-0.416,0.194-0.814,0.447c-0.625,0.396-1.379,0.957-2.258,1.684l-0.998,0.788
			c0.527,0.54,1.439,1.444,2.734,2.712c0.977,0.994,1.564,1.575,1.766,1.741c0.199,0.166,0.393,0.266,0.583,0.298
			c0.19,0.033,0.483,0.049,0.884,0.049v0.438c-0.483,0.091-0.891,0.174-1.225,0.248c-0.332,0.074-0.715,0.164-1.145,0.268
			c-0.223-0.182-0.438-0.369-0.646-0.561c-0.209-0.192-0.636-0.62-1.281-1.283c-1.324-1.354-2.414-2.41-3.268-3.172l-0.107,0.047
			v0.576c0.025,1.69,0.041,2.604,0.047,2.741c0.006,0.325,0.045,0.562,0.117,0.712c0.025,0.059,0.064,0.109,0.117,0.151
			c0.051,0.042,0.129,0.077,0.234,0.103c0.045,0.007,0.406,0.017,1.084,0.029v0.562c-0.859-0.041-1.635-0.062-2.326-0.062
			C135.557,176.596,134.726,176.617,133.734,176.658z"/>
		<path fill="#414142" d="M147.766,176.658v-0.562l0.93-0.01c0.146-0.006,0.256-0.031,0.332-0.073
			c0.075-0.042,0.133-0.096,0.172-0.161c0.073-0.129,0.116-0.36,0.129-0.691c0.005-0.085,0.021-1.018,0.047-2.799v-4.047
			c0-1.085-0.016-2.207-0.047-3.363c-0.025-0.78-0.062-1.216-0.107-1.307c-0.033-0.065-0.086-0.111-0.158-0.137
			c-0.098-0.045-0.551-0.068-1.359-0.068v-0.562c1.465-0.188,2.48-0.423,3.051-0.705c0.084-0.04,0.148-0.061,0.195-0.061
			c0.045,0,0.08,0.015,0.105,0.044c0.027,0.029,0.039,0.07,0.039,0.122c0,0.045-0.006,0.11-0.02,0.195l-0.01,0.322
			c-0.033,1.164-0.053,2.156-0.061,2.977l-0.02,1.521v5.065c0.026,1.691,0.042,2.605,0.047,2.742
			c0.007,0.325,0.047,0.562,0.119,0.712c0.025,0.059,0.064,0.109,0.117,0.151s0.131,0.077,0.236,0.103
			c0.045,0.007,0.408,0.017,1.09,0.029v0.562c-0.881-0.041-1.654-0.062-2.321-0.062
			C149.638,176.596,148.803,176.617,147.766,176.658z"/>
		<path fill="#414142" d="M156.293,176.658v-0.562l0.934-0.01c0.137-0.006,0.244-0.031,0.319-0.073s0.132-0.096,0.172-0.161
			c0.071-0.129,0.118-0.359,0.138-0.691c0-0.084,0.016-1.016,0.047-2.796v-1.159c0-0.52-0.016-1.078-0.047-1.676
			c-0.02-0.383-0.051-0.61-0.092-0.682c-0.041-0.072-0.113-0.125-0.217-0.161s-0.521-0.05-1.254-0.044v-0.562
			c1.305-0.183,2.258-0.421,2.859-0.715c0.129-0.064,0.215-0.098,0.262-0.098c0.045,0,0.08,0.017,0.105,0.049
			s0.039,0.081,0.039,0.146c0,0.046-0.002,0.098-0.006,0.156c-0.02,0.312-0.032,0.775-0.041,1.392l1.275-1.172
			c0.162-0.143,0.262-0.225,0.301-0.244c0.15-0.084,0.363-0.162,0.643-0.234c0.279-0.071,0.57-0.107,0.875-0.107
			c0.623,0,1.176,0.153,1.662,0.459c0.486,0.307,0.859,0.759,1.119,1.357l1.082-0.996c0.24-0.22,0.406-0.355,0.498-0.407
			c0.17-0.097,0.41-0.188,0.723-0.271s0.623-0.126,0.93-0.126c0.742,0,1.364,0.197,1.866,0.59c0.501,0.395,0.824,0.841,0.968,1.342
			c0.092,0.332,0.137,1.047,0.137,2.146v1.014l0.023,1.356c0.016,0.786,0.023,1.248,0.023,1.385
			c0.014,0.325,0.053,0.562,0.117,0.712c0.027,0.059,0.068,0.109,0.123,0.151c0.057,0.042,0.137,0.077,0.241,0.103
			c0.04,0.007,0.399,0.017,1.081,0.029v0.562c-0.82-0.041-1.379-0.062-1.679-0.062c-0.286,0-0.862,0.021-1.728,0.062l0.082-2.694
			l0.027-1.055v-0.84c0-1.093-0.055-1.84-0.166-2.24s-0.344-0.725-0.699-0.972s-0.768-0.371-1.236-0.371
			c-0.541,0-1.03,0.156-1.467,0.469c-0.322,0.24-0.533,0.523-0.637,0.849s-0.154,0.959-0.154,1.901v0.654l0.023,1.355
			c0.01,0.787,0.018,1.249,0.023,1.386c0.014,0.325,0.053,0.562,0.117,0.712c0.027,0.059,0.066,0.109,0.119,0.151
			c0.052,0.042,0.131,0.077,0.235,0.103c0.046,0.007,0.409,0.017,1.091,0.029v0.562c-0.957-0.041-1.725-0.062-2.303-0.062
			c-0.469,0-1.32,0.021-2.557,0.062v-0.562l0.934-0.01c0.145-0.006,0.254-0.031,0.329-0.073s0.132-0.096,0.173-0.16
			c0.07-0.13,0.113-0.36,0.127-0.691c0.006-0.085,0.021-1.016,0.047-2.794v-0.76c0-0.837-0.064-1.449-0.195-1.835
			c-0.129-0.386-0.355-0.694-0.68-0.925c-0.325-0.23-0.715-0.346-1.168-0.346c-0.39,0-0.758,0.083-1.105,0.248
			c-0.346,0.166-0.615,0.372-0.805,0.618c-0.189,0.247-0.305,0.51-0.344,0.789c-0.062,0.448-0.094,0.986-0.094,1.616v0.594
			c0.031,1.688,0.047,2.6,0.047,2.735c0.014,0.325,0.053,0.562,0.117,0.711c0.027,0.059,0.066,0.108,0.119,0.151
			c0.052,0.042,0.134,0.076,0.245,0.102c0.04,0.007,0.399,0.017,1.081,0.029v0.562c-0.897-0.041-1.662-0.062-2.293-0.062
			C158.27,176.596,157.424,176.617,156.293,176.658z"/>
	</g>
	<g>
		<path fill="#414142" d="M13.964,199.658v-0.562l0.934-0.01c0.138-0.006,0.244-0.031,0.319-0.073s0.133-0.096,0.172-0.161
			c0.072-0.129,0.118-0.359,0.138-0.691c0-0.084,0.016-1.016,0.047-2.796v-1.159c0-0.52-0.016-1.078-0.047-1.676
			c-0.02-0.383-0.05-0.61-0.092-0.682c-0.042-0.072-0.114-0.125-0.217-0.161c-0.103-0.036-0.521-0.05-1.254-0.044v-0.562
			c1.305-0.183,2.258-0.421,2.858-0.715c0.129-0.064,0.217-0.098,0.262-0.098s0.081,0.017,0.106,0.049
			c0.026,0.032,0.039,0.081,0.039,0.146c0,0.045-0.002,0.097-0.007,0.155c-0.014,0.233-0.027,0.728-0.04,1.479L19,190.545
			c0.534-0.195,1.039-0.293,1.514-0.293c0.527,0,1.027,0.107,1.5,0.322s0.827,0.484,1.065,0.811
			c0.237,0.325,0.396,0.734,0.474,1.229c0.045,0.293,0.068,1.109,0.068,2.45v1.728c0,0.847,0.016,1.422,0.047,1.728
			c0.033,0.195,0.084,0.331,0.153,0.405c0.069,0.075,0.176,0.122,0.321,0.142l1.057,0.029v0.562
			c-0.638-0.041-1.168-0.062-1.591-0.062c-0.364,0-0.97,0.021-1.815,0.062c0.094-1.608,0.141-2.624,0.141-3.048v-1.641
			c0-1.022-0.039-1.693-0.117-2.013c-0.111-0.436-0.362-0.787-0.753-1.055c-0.391-0.267-0.863-0.4-1.417-0.4
			c-0.489,0-0.935,0.115-1.339,0.347c-0.404,0.231-0.692,0.498-0.865,0.8c-0.173,0.303-0.259,0.812-0.259,1.528v1.181
			c0.031,1.691,0.047,2.606,0.047,2.742c0.013,0.326,0.053,0.563,0.118,0.713c0.026,0.059,0.065,0.109,0.118,0.151
			s0.135,0.077,0.246,0.103c0.039,0.007,0.4,0.017,1.083,0.029v0.562c-0.794-0.041-1.513-0.062-2.157-0.062
			C16.092,199.596,15.201,199.617,13.964,199.658z"/>
		<path fill="#414142" d="M28.795,195.158c0-1.459,0.463-2.648,1.39-3.57s2.115-1.383,3.565-1.383c1.365,0,2.477,0.43,3.335,1.289
			c0.858,0.86,1.288,1.971,1.288,3.332c0,0.951-0.221,1.82-0.663,2.608c-0.442,0.788-1.066,1.405-1.873,1.852
			c-0.806,0.446-1.694,0.669-2.663,0.669c-0.754,0-1.393-0.127-1.917-0.381s-0.948-0.573-1.273-0.957
			c-0.325-0.385-0.572-0.779-0.741-1.183C28.945,196.725,28.795,195.966,28.795,195.158z M30.639,194.439
			c0,0.801,0.133,1.615,0.399,2.443c0.266,0.827,0.65,1.432,1.154,1.812c0.503,0.382,1.05,0.572,1.641,0.572
			c0.753,0,1.383-0.3,1.89-0.899s0.76-1.521,0.76-2.767c0-1.035-0.151-1.93-0.453-2.683s-0.687-1.284-1.154-1.593
			c-0.467-0.311-0.983-0.465-1.548-0.465c-0.799,0-1.447,0.29-1.943,0.87C30.887,192.312,30.639,193.214,30.639,194.439z"/>
		<path fill="#414142" d="M42.201,191.611v-0.562c0.117,0,0.364-0.027,0.741-0.083s0.796-0.15,1.258-0.284s0.81-0.263,1.044-0.387
			c0.071-0.039,0.13-0.059,0.176-0.059c0.045,0,0.083,0.017,0.112,0.049c0.029,0.033,0.044,0.088,0.044,0.167
			c0,0.032-0.005,0.11-0.016,0.235c-0.021,0.189-0.031,0.362-0.031,0.519v1.039c1.101-1.022,1.789-1.599,2.062-1.729
			c0.358-0.176,0.893-0.264,1.603-0.264c0.828,0,1.541,0.188,2.14,0.562c0.6,0.375,1.034,0.86,1.305,1.456s0.406,1.232,0.406,1.91
			c0,0.41-0.047,0.798-0.142,1.162c-0.094,0.365-0.215,0.709-0.361,1.031s-0.31,0.618-0.488,0.889
			c-0.18,0.271-0.348,0.474-0.504,0.61c-0.091,0.085-0.327,0.28-0.708,0.587c-0.382,0.306-0.789,0.571-1.222,0.796
			c-0.434,0.225-0.735,0.363-0.904,0.415c-0.372,0.117-0.766,0.176-1.183,0.176c-0.326,0-0.644-0.039-0.953-0.117
			s-0.659-0.212-1.05-0.4v1.553c0.026,1.646,0.042,2.555,0.047,2.725c0.006,0.318,0.046,0.553,0.119,0.703
			c0.026,0.071,0.067,0.129,0.123,0.171c0.056,0.042,0.136,0.073,0.241,0.093c0.06,0.013,0.45,0.025,1.173,0.039v0.562
			c-0.811-0.042-1.884-0.062-3.22-0.062c-0.739,0-1.307,0.021-1.702,0.062v-0.562l0.934-0.01c0.137-0.007,0.244-0.031,0.319-0.073
			c0.075-0.043,0.132-0.097,0.172-0.161c0.072-0.131,0.118-0.362,0.138-0.694c0.005-0.085,0.021-1.017,0.047-2.796v-3.47
			c0-1.127-0.013-2.283-0.039-3.47c-0.026-1.186-0.054-1.832-0.083-1.939s-0.077-0.189-0.142-0.245s-0.15-0.093-0.254-0.112
			L42.201,191.611z M45.529,197.652c0.346,0.352,0.74,0.627,1.184,0.829c0.443,0.201,0.91,0.302,1.399,0.302
			c0.593,0,1.133-0.147,1.619-0.443c0.485-0.296,0.87-0.756,1.154-1.379c0.283-0.624,0.425-1.303,0.425-2.037
			c0-0.709-0.135-1.324-0.406-1.848c-0.271-0.523-0.654-0.916-1.149-1.18c-0.496-0.263-0.995-0.395-1.497-0.395
			c-0.372,0-0.738,0.073-1.101,0.22c-0.361,0.146-0.689,0.358-0.983,0.638s-0.489,0.546-0.587,0.8
			c-0.039,0.123-0.059,0.36-0.059,0.712V197.652z"/>
		<path fill="#414142" d="M67.819,204.58v0.562c-0.707-0.042-1.533-0.062-2.479-0.062c-0.991,0-1.837,0.021-2.537,0.062v-0.562
			c0.765-0.02,1.176-0.033,1.236-0.039c0.112-0.025,0.198-0.061,0.257-0.102c0.06-0.043,0.105-0.104,0.139-0.181
			c0.066-0.144,0.105-0.37,0.119-0.683c0-0.032,0.008-0.468,0.023-1.305c0.016-0.839,0.023-1.312,0.023-1.423v-2.602
			c-0.17,0.085-0.332,0.171-0.486,0.259s-0.352,0.209-0.593,0.365l-1.295,0.85c-0.327,0.052-0.618,0.078-0.873,0.078
			c-1.282,0-2.257-0.455-2.924-1.366s-1-1.923-1-3.036c0-0.514,0.07-1.026,0.21-1.537c0.141-0.512,0.313-0.92,0.52-1.226
			c0.205-0.306,0.472-0.582,0.798-0.83c0.183-0.136,0.594-0.379,1.234-0.727c0.64-0.349,1.071-0.559,1.293-0.63
			c0.405-0.13,0.836-0.195,1.293-0.195c0.431,0,0.849,0.054,1.254,0.161c0.404,0.107,0.849,0.281,1.332,0.522l0.994-0.637
			l0.361,0.215c-0.21,0.598-0.338,1.079-0.383,1.443c-0.083,0.638-0.125,1.727-0.125,3.268v5.619l0.016,1.356
			c0.016,0.78,0.026,1.238,0.031,1.375c0.006,0.325,0.042,0.562,0.108,0.712c0.033,0.065,0.075,0.119,0.128,0.161
			c0.052,0.042,0.131,0.073,0.236,0.093C66.768,204.547,67.131,204.561,67.819,204.58z M64.601,192.063
			c-0.255-0.254-0.613-0.486-1.075-0.697c-0.461-0.212-0.92-0.317-1.378-0.317c-0.831,0-1.531,0.32-2.1,0.961
			s-0.854,1.533-0.854,2.678c0,0.735,0.132,1.432,0.397,2.088c0.265,0.657,0.631,1.135,1.099,1.434
			c0.468,0.3,0.983,0.449,1.545,0.449c0.465,0,0.89-0.11,1.275-0.332c0.386-0.221,0.749-0.539,1.089-0.956
			c0.02-1.685,0.029-2.751,0.029-3.199C64.63,193.488,64.62,192.785,64.601,192.063z"/>
		<path fill="#414142" d="M71.118,199.658v-0.562c0.742-0.013,1.142-0.025,1.201-0.039c0.111-0.02,0.195-0.05,0.251-0.092
			c0.056-0.043,0.1-0.103,0.133-0.181c0.065-0.149,0.105-0.384,0.118-0.702c0.031-1.733,0.047-2.64,0.047-2.718v-1.159
			c0-0.52-0.016-1.078-0.047-1.676c-0.013-0.383-0.04-0.61-0.082-0.682c-0.042-0.072-0.116-0.125-0.222-0.161
			c-0.106-0.036-0.526-0.05-1.259-0.044v-0.562c1.305-0.183,2.258-0.421,2.858-0.715c0.129-0.064,0.217-0.098,0.262-0.098
			s0.081,0.017,0.106,0.049c0.026,0.032,0.039,0.081,0.039,0.146c0,0.045-0.002,0.097-0.007,0.155
			c-0.022,0.396-0.036,1.009-0.04,1.84c0.293-0.339,0.564-0.673,0.812-1.005c0.248-0.332,0.428-0.547,0.538-0.645
			c0.196-0.17,0.421-0.305,0.675-0.405c0.255-0.101,0.519-0.151,0.792-0.151s0.544,0.059,0.812,0.176l0.059,0.137
			c-0.101,0.866-0.158,1.628-0.172,2.285h-0.439c-0.15-0.311-0.324-0.538-0.522-0.681c-0.199-0.143-0.448-0.214-0.747-0.214
			c-0.501,0-0.928,0.207-1.279,0.619c-0.352,0.413-0.527,1.033-0.527,1.858v1.005c0,0.43,0.016,1.213,0.047,2.352
			c0.006,0.402,0.022,0.66,0.049,0.771s0.061,0.19,0.104,0.239c0.042,0.049,0.112,0.089,0.211,0.121
			c0.196,0.059,0.726,0.117,1.59,0.176v0.562c-1.147-0.041-2.125-0.062-2.934-0.062C72.708,199.596,71.9,199.617,71.118,199.658z"/>
		<path fill="#414142" d="M82.255,196.721h0.594c0.006,0.375,0.026,0.673,0.059,0.893c0.032,0.22,0.087,0.435,0.166,0.645
			c0.078,0.211,0.198,0.389,0.361,0.534s0.34,0.259,0.531,0.339c0.192,0.081,0.387,0.135,0.585,0.16
			c0.198,0.026,0.499,0.039,0.902,0.039c0.663,0,1.207-0.176,1.633-0.525c0.426-0.352,0.639-0.832,0.639-1.441
			c0-0.273-0.067-0.514-0.2-0.721c-0.133-0.208-0.325-0.37-0.576-0.487c-0.25-0.116-0.789-0.27-1.615-0.458
			c-0.826-0.188-1.36-0.324-1.6-0.408c-0.364-0.137-0.654-0.303-0.869-0.497c-0.215-0.194-0.385-0.441-0.512-0.74
			c-0.127-0.298-0.19-0.623-0.19-0.974c0-0.513,0.135-0.985,0.405-1.417s0.694-0.782,1.273-1.052c0.579-0.27,1.21-0.404,1.893-0.404
			c0.41,0,0.884,0.056,1.424,0.166s0.979,0.248,1.317,0.412c-0.044,0.722-0.075,1.456-0.094,2.203h-0.562
			c-0.033-0.471-0.07-0.779-0.112-0.928s-0.099-0.28-0.17-0.396c-0.072-0.115-0.195-0.239-0.371-0.371
			c-0.175-0.133-0.401-0.25-0.677-0.354c-0.276-0.103-0.616-0.154-1.019-0.154c-0.572,0-1.032,0.169-1.379,0.507
			s-0.521,0.734-0.521,1.188c0,0.254,0.05,0.472,0.151,0.653c0.101,0.182,0.235,0.329,0.405,0.443
			c0.169,0.114,0.407,0.216,0.712,0.307l1.619,0.399c0.819,0.209,1.383,0.387,1.692,0.536c0.309,0.149,0.558,0.382,0.746,0.697
			s0.283,0.693,0.283,1.135c0,0.877-0.363,1.643-1.089,2.295c-0.726,0.653-1.698,0.979-2.915,0.979c-0.56,0-1.306-0.084-2.236-0.252
			c-0.515-0.097-0.791-0.164-0.83-0.203c-0.026-0.02-0.039-0.052-0.039-0.098c0-0.045,0.007-0.101,0.02-0.166
			c0.06-0.279,0.099-0.552,0.119-0.818C82.226,198.121,82.242,197.565,82.255,196.721z"/>
		<path fill="#414142" d="M93.079,192.018v-0.41c0.629-0.255,1.129-0.482,1.5-0.684c0-1.549,0-2.537,0-2.967
			c0.679-0.234,1.231-0.485,1.655-0.752l0.235,0.195c-0.072,0.542-0.15,1.737-0.234,3.586c0.522,0.007,0.836,0.01,0.94,0.01
			c0.059,0,0.395-0.008,1.008-0.022c0.339-0.008,0.594-0.024,0.764-0.05l0.068,0.068l-0.206,0.916
			c-0.412-0.006-0.79-0.01-1.136-0.01c-0.346,0-0.826,0.004-1.439,0.01l-0.047,3.973c-0.02,0.969-0.013,1.549,0.02,1.737
			c0.032,0.188,0.094,0.353,0.186,0.493c0.091,0.14,0.209,0.252,0.356,0.336c0.146,0.085,0.395,0.15,0.747,0.195
			c0.267,0,0.483-0.012,0.649-0.034c0.166-0.022,0.375-0.079,0.629-0.171l0.117,0.385c-0.306,0.241-0.603,0.492-0.889,0.752
			c-0.248,0.091-0.479,0.151-0.694,0.181s-0.462,0.044-0.742,0.044c-0.346,0-0.621-0.039-0.826-0.117s-0.392-0.188-0.562-0.327
			s-0.311-0.317-0.425-0.532c-0.114-0.215-0.188-0.554-0.222-1.016c0.006-0.443,0.019-0.929,0.038-1.456
			c0.006-0.104,0.009-0.218,0.009-0.342v-4.054h-0.402C93.85,191.955,93.484,191.977,93.079,192.018z"/>
		<path fill="#414142" d="M113.527,199.096v0.562c-0.848-0.041-1.486-0.062-1.92-0.062c-0.479,0-0.964,0.021-1.455,0.062
			c0.027-0.527,0.049-1.121,0.062-1.779c-0.39,0.313-0.854,0.74-1.393,1.281c-0.123,0.127-0.243,0.221-0.359,0.28
			c-0.279,0.161-0.559,0.276-0.836,0.347c-0.279,0.07-0.613,0.105-1.002,0.105c-0.525,0-0.965-0.072-1.317-0.215
			c-0.353-0.145-0.656-0.362-0.909-0.656c-0.189-0.215-0.336-0.494-0.438-0.836c-0.102-0.343-0.152-0.756-0.152-1.238
			c0-0.229,0.008-0.444,0.023-0.646s0.023-0.401,0.023-0.597v-1.674c0-0.169-0.016-0.597-0.047-1.282
			c-0.014-0.43-0.042-0.711-0.087-0.842c-0.026-0.064-0.067-0.117-0.126-0.156c-0.096-0.064-0.266-0.098-0.51-0.098
			c-0.354,0-0.635-0.003-0.84-0.01v-0.562c1.402-0.156,2.42-0.408,3.053-0.756c0.104-0.059,0.186-0.088,0.244-0.088
			c0.045,0,0.082,0.017,0.111,0.049c0.029,0.033,0.045,0.082,0.045,0.146c0,0.053-0.004,0.118-0.01,0.196
			c-0.027,0.209-0.051,0.61-0.07,1.204c-0.041,1.09-0.061,1.82-0.061,2.192v1.909c0,0.796,0.053,1.355,0.16,1.678
			c0.106,0.324,0.313,0.582,0.621,0.773c0.307,0.193,0.686,0.289,1.139,0.289c0.311,0,0.619-0.055,0.926-0.164
			c0.309-0.109,0.584-0.267,0.83-0.472c0.184-0.149,0.369-0.351,0.561-0.603c0.144-0.188,0.238-0.333,0.285-0.434
			c0.045-0.101,0.074-0.248,0.088-0.442c0.031-0.573,0.047-1.144,0.047-1.711v-0.821c0-0.169-0.016-0.596-0.047-1.28
			c-0.014-0.43-0.042-0.71-0.087-0.841c-0.026-0.064-0.067-0.117-0.126-0.156c-0.096-0.064-0.266-0.098-0.51-0.098
			c-0.354,0-0.635-0.003-0.84-0.01v-0.562c1.396-0.156,2.408-0.408,3.039-0.756c0.104-0.059,0.184-0.088,0.242-0.088
			c0.046,0,0.083,0.017,0.112,0.049c0.029,0.033,0.044,0.082,0.044,0.146c0,0.053-0.004,0.117-0.01,0.195
			c-0.018,0.209-0.039,0.622-0.062,1.24c-0.038,1.062-0.057,1.778-0.057,2.149v1.338l0.02,1.358c0.023,0.787,0.039,1.25,0.047,1.387
			c0.006,0.325,0.042,0.563,0.107,0.713c0.031,0.059,0.074,0.109,0.126,0.151s0.13,0.077,0.233,0.103
			C112.486,199.073,112.846,199.083,113.527,199.096z"/>
		<path fill="#414142" d="M121.81,199.752c-0.254-0.664-0.43-1.109-0.527-1.338l-0.801-1.863l-2.002-4.656
			c-0.13-0.293-0.241-0.488-0.332-0.586s-0.192-0.159-0.303-0.186c-0.091-0.025-0.332-0.045-0.723-0.059v-0.594
			c1.081,0.042,1.868,0.062,2.364,0.062c0.547,0,1.295-0.021,2.246-0.062v0.594c-0.703,0.02-1.117,0.065-1.24,0.137
			c-0.125,0.071-0.186,0.169-0.186,0.293c0,0.195,0.129,0.615,0.391,1.259l1.191,2.965l0.283,0.663
			c0.32,0.774,0.539,1.291,0.656,1.551l0.977-2.213c0.059-0.131,0.355-0.861,0.891-2.195c0.312-0.773,0.521-1.365,0.625-1.775
			c0.025-0.111,0.039-0.209,0.039-0.293c0-0.111-0.043-0.189-0.127-0.234c-0.156-0.084-0.574-0.137-1.25-0.156v-0.594
			c0.971,0.042,1.592,0.062,1.865,0.062c0.229,0,0.852-0.021,1.868-0.062v0.594c-0.404,0.02-0.673,0.066-0.808,0.142
			c-0.133,0.075-0.266,0.229-0.396,0.464c-0.091,0.156-0.444,0.858-1.056,2.108l-0.939,2.001c-0.164,0.357-0.728,1.682-1.692,3.973
			H121.81z"/>
		<path fill="#414142" d="M135.111,199.768l-0.41-1.359l-0.908-3.022c-0.26-0.874-0.525-1.718-0.795-2.533
			c-0.271-0.815-0.449-1.284-0.537-1.408s-0.195-0.212-0.322-0.265c-0.127-0.052-0.438-0.101-0.934-0.146v-0.562
			c0.717,0.042,1.484,0.062,2.305,0.062c0.873,0,1.687-0.021,2.441-0.062v0.562c-0.605,0.007-0.999,0.029-1.182,0.068
			c-0.123,0.026-0.213,0.074-0.268,0.143c-0.057,0.068-0.084,0.148-0.084,0.239c0,0.15,0.095,0.552,0.283,1.204l0.906,3.146
			c0.15,0.527,0.332,1.097,0.547,1.709l0.744-1.698l1.441-3.211c0.339-0.761,0.658-1.528,0.959-2.303h0.484
			c0.43,1.19,0.723,1.979,0.879,2.361l1.123,2.831c0.385,0.95,0.675,1.665,0.87,2.146l0.729-1.925
			c0.475-1.236,0.844-2.292,1.109-3.165c0.15-0.476,0.226-0.812,0.226-1.008c0-0.183-0.063-0.314-0.19-0.396
			c-0.127-0.081-0.549-0.128-1.266-0.142v-0.562c0.99,0.042,1.674,0.062,2.053,0.062c0.456,0,1.076-0.021,1.857-0.062v0.562
			c-0.377,0.007-0.631,0.041-0.76,0.103c-0.131,0.062-0.244,0.165-0.342,0.309c-0.17,0.222-0.433,0.743-0.79,1.564l-1.024,2.445
			l-0.438,1.096c-0.085,0.216-0.335,0.877-0.751,1.985c-0.182,0.47-0.318,0.881-0.41,1.232h-0.922l-0.469-1.224l-2.23-5.609
			l-0.94,2.026l-1.106,2.457c-0.256,0.568-0.461,1.051-0.617,1.449l-0.324,0.9H135.111z"/>
		<path fill="#414142" d="M150.764,199.658v-0.562c0.312,0,0.555-0.045,0.73-0.137c0.234-0.13,0.551-0.426,0.947-0.888l2.285-2.798
			l-0.826-1.229c-0.439-0.663-0.869-1.256-1.289-1.776s-0.766-0.862-1.039-1.025c-0.105-0.059-0.229-0.088-0.371-0.088
			c-0.059,0-0.164,0.007-0.312,0.02l-0.125-0.562c0.754-0.083,1.52-0.208,2.295-0.375c0.246,0.228,0.475,0.469,0.684,0.722
			c0.357,0.462,0.793,1.089,1.307,1.88l0.723,1.137l0.606-0.777c0.476-0.604,1.147-1.527,2.015-2.773
			c0.338,0.021,0.593,0.031,0.762,0.031c0.156,0,0.401-0.01,0.734-0.031v0.562c-0.289,0.007-0.507,0.059-0.651,0.156
			c-0.302,0.201-0.799,0.721-1.489,1.559l-0.93,1.108l-0.6,0.78l0.361,0.548c0.156,0.229,0.576,0.813,1.258,1.755
			c0.68,0.942,1.16,1.562,1.441,1.861c0.143,0.15,0.264,0.244,0.361,0.283s0.289,0.059,0.576,0.059v0.562
			c-0.455-0.045-0.865-0.068-1.229-0.068c-0.384,0-0.787,0.023-1.209,0.068c-0.418-0.529-0.793-1.038-1.125-1.528l-1.488-2.233
			c-0.723,0.843-1.623,2.097-2.698,3.762c-0.26-0.045-0.546-0.068-0.856-0.068C151.305,199.59,151.023,199.613,150.764,199.658z"/>
		<path fill="#414142" d="M163.964,204.877l0.498-1.5h0.234c0.124,0.104,0.229,0.187,0.317,0.248s0.182,0.108,0.283,0.141
			s0.249,0.049,0.444,0.049c0.202,0,0.399-0.044,0.591-0.132s0.371-0.226,0.537-0.415c0.166-0.188,0.363-0.514,0.591-0.975
			c0.342-0.705,0.648-1.424,0.919-2.154c-0.207-0.586-0.457-1.243-0.748-1.973l-1.547-3.846c-0.461-1.146-0.838-2.019-1.131-2.617
			c-0.117-0.236-0.242-0.395-0.377-0.474c-0.133-0.08-0.431-0.146-0.893-0.196v-0.562c0.807,0.042,1.604,0.062,2.391,0.062
			c0.768,0,1.506-0.021,2.217-0.062v0.562c-0.672,0.045-1.055,0.086-1.152,0.123c-0.17,0.063-0.254,0.178-0.254,0.342
			c0,0.101,0.055,0.309,0.166,0.625c0.253,0.803,0.494,1.487,0.721,2.055l0.615,1.526c0.371,0.913,0.684,1.653,0.938,2.221
			l0.518-1.154c0.201-0.456,0.557-1.324,1.064-2.603s0.803-2.064,0.889-2.357c0.025-0.103,0.039-0.191,0.039-0.268
			c0-0.121-0.051-0.216-0.152-0.282c-0.101-0.067-0.492-0.132-1.176-0.196v-0.594c0.754,0.042,1.422,0.062,2.002,0.062
			c0.586,0,1.164-0.021,1.738-0.062l-0.098,0.594c-0.332,0.013-0.59,0.084-0.771,0.213c-0.184,0.129-0.459,0.563-0.826,1.303
			s-1.049,2.205-2.043,4.398l-2.254,5.286c-0.365,0.853-0.683,1.462-0.949,1.827c-0.268,0.364-0.587,0.641-0.958,0.83
			c-0.371,0.188-0.778,0.283-1.221,0.283c-0.215,0-0.409-0.025-0.581-0.074C164.373,205.08,164.179,204.996,163.964,204.877z"/>
		<path fill="#414142" d="M177.916,199.658l-0.107-0.449c0.67-0.717,1.191-1.296,1.562-1.738c0.859-1.035,2.016-2.462,3.468-4.279
			c0.183-0.228,0.647-0.869,1.397-1.924h-2.264c-0.312,0-0.812,0.021-1.502,0.062c-0.422,0.02-0.68,0.052-0.77,0.098
			c-0.047,0.02-0.082,0.051-0.107,0.097c-0.033,0.052-0.078,0.21-0.137,0.476l-0.195,1.127h-0.562
			c0.064-1.125,0.098-1.748,0.098-1.872c0-0.156-0.006-0.374-0.02-0.653l0.078-0.068c2.416,0.042,4.356,0.062,5.822,0.062
			c0.703,0,1.324-0.021,1.865-0.062v0.518c-0.443,0.464-1.215,1.395-2.311,2.793c-2.102,2.652-3.42,4.352-3.955,5.096h0.686
			c0.548,0,1.32-0.01,2.314-0.031c0.996-0.021,1.719-0.08,2.17-0.179c0.144-0.032,0.232-0.065,0.264-0.098
			c0.027-0.02,0.049-0.062,0.069-0.128c0.13-0.412,0.255-0.965,0.372-1.658h0.609c-0.098,0.753-0.155,1.207-0.174,1.361
			c-0.014,0.097-0.049,0.544-0.107,1.342c-0.377,0.073-0.854,0.109-1.426,0.109l-4.238-0.062L177.916,199.658z"/>
	</g>
	<g>
		<path fill="#FFFFFF" d="M50.792,216.613c0-1.855,0.133-3.287,0.4-4.297c0.267-1.009,0.752-1.842,1.455-2.5
			c0.703-0.657,1.595-0.986,2.676-0.986c0.547,0,1.053,0.093,1.519,0.278c0.465,0.186,0.846,0.42,1.143,0.703
			c0.296,0.283,0.547,0.632,0.752,1.045s0.35,0.829,0.435,1.245c0.195,0.951,0.293,1.986,0.293,3.105
			c0,1.459-0.114,2.709-0.342,3.75c-0.13,0.593-0.316,1.135-0.557,1.626c-0.241,0.491-0.527,0.91-0.859,1.255
			c-0.332,0.346-0.732,0.62-1.201,0.825s-0.996,0.308-1.582,0.308c-0.71,0-1.318-0.15-1.826-0.449s-0.912-0.684-1.211-1.152
			c-0.417-0.67-0.703-1.438-0.859-2.3S50.792,217.389,50.792,216.613z M52.464,216.053c0,0.938,0.062,1.859,0.186,2.762
			s0.319,1.634,0.587,2.194c0.183,0.378,0.449,0.688,0.802,0.929c0.352,0.241,0.746,0.361,1.183,0.361
			c0.743,0,1.313-0.31,1.711-0.929c0.573-0.886,0.86-2.648,0.86-5.288c0-1.134-0.061-2.152-0.181-3.055
			c-0.121-0.902-0.321-1.644-0.602-2.224c-0.183-0.371-0.438-0.676-0.768-0.913c-0.329-0.238-0.725-0.357-1.188-0.357
			c-0.509,0-0.963,0.163-1.364,0.488c-0.4,0.326-0.705,0.918-0.914,1.774C52.569,212.653,52.464,214.072,52.464,216.053z"/>
		<path fill="#FFFFFF" d="M64.975,211.533l-0.176-0.049l-0.098-0.807l0.098-0.098c0.698-0.201,1.457-0.477,2.279-0.827
			c1.213-0.513,1.992-0.856,2.337-1.032l0.254,0.098c-0.104,2.982-0.156,4.695-0.156,5.139v3.624c0,1.445,0.021,2.54,0.062,3.282
			c0.02,0.436,0.073,0.711,0.16,0.825s0.217,0.195,0.389,0.244s0.733,0.093,1.686,0.132v0.594c-1.647-0.041-2.679-0.062-3.096-0.062
			c-0.312,0-1.416,0.021-3.311,0.062v-0.594c0.983-0.059,1.551-0.105,1.703-0.142c0.152-0.036,0.266-0.089,0.34-0.161
			s0.128-0.173,0.16-0.303c0.054-0.202,0.102-0.783,0.142-1.744c0.041-0.96,0.061-1.688,0.061-2.184v-3.849
			c0-1.569-0.003-2.553-0.01-2.95c0-0.176-0.023-0.286-0.068-0.332c-0.026-0.025-0.062-0.039-0.107-0.039
			c-0.059,0-0.209,0.053-0.45,0.156C66.067,211.013,65.333,211.352,64.975,211.533z"/>
	</g>
	<g>
		<path fill="#FFFFFF" d="M77.111,222.658v-0.547c0.201-0.254,0.565-0.65,1.091-1.191l2.173-2.265
			c0.169-0.176,0.581-0.634,1.237-1.376c0.493-0.566,0.88-1.082,1.159-1.548c0.279-0.465,0.484-0.917,0.614-1.356
			s0.195-0.857,0.195-1.255c0-0.677-0.188-1.263-0.565-1.757c-0.487-0.657-1.196-0.986-2.125-0.986
			c-0.521,0-0.978,0.085-1.369,0.254c-0.391,0.17-0.653,0.356-0.787,0.562c-0.134,0.205-0.331,0.793-0.591,1.763h-0.578
			c0.154-0.873,0.264-1.771,0.328-2.697c0.411-0.391,0.754-0.67,1.031-0.84c0.277-0.169,0.617-0.305,1.021-0.405
			s0.844-0.151,1.32-0.151c0.854,0,1.574,0.146,2.161,0.436c0.586,0.29,1.056,0.722,1.407,1.295
			c0.353,0.574,0.528,1.223,0.528,1.946c0,0.782-0.2,1.554-0.601,2.312c-0.4,0.76-1.231,1.769-2.494,3.026l-1.681,1.662
			c-0.609,0.606-1.071,1.089-1.386,1.447h4.304c0.862,0,1.709-0.047,2.539-0.141l0.068,0.078c-0.031,0.247-0.047,0.536-0.047,0.867
			c0,0.299,0.016,0.553,0.047,0.76l-0.068,0.107c-0.463-0.025-0.99-0.044-1.583-0.057c-1.329-0.024-2.219-0.037-2.668-0.037
			c-0.567,0-1.521,0.013-2.863,0.037C78.192,222.614,77.586,222.633,77.111,222.658z"/>
		<path fill="#FFFFFF" d="M92.114,222.357c-0.09-0.553-0.17-0.979-0.24-1.277c-0.046-0.188-0.195-0.725-0.447-1.607l0.529-0.205
			c0.41,1.092,0.88,1.83,1.411,2.217c0.53,0.387,1.222,0.58,2.075,0.58c0.625,0,1.15-0.124,1.577-0.372
			c0.426-0.247,0.773-0.642,1.04-1.184c0.267-0.541,0.4-1.151,0.4-1.829c0-0.907-0.231-1.604-0.693-2.09
			c-0.463-0.485-1.084-0.729-1.866-0.729c-0.261,0-0.503,0.025-0.728,0.076c-0.225,0.052-0.558,0.167-1.001,0.346l-0.117-0.098
			l0.216-1.059c0.522,0.031,0.872,0.047,1.049,0.047c0.797,0,1.413-0.278,1.848-0.835s0.652-1.187,0.652-1.89
			c0-0.631-0.229-1.168-0.688-1.611c-0.459-0.442-1.039-0.664-1.742-0.664c-0.423,0-0.83,0.085-1.22,0.255s-0.735,0.399-1.034,0.687
			c-0.117,0.248-0.303,0.716-0.557,1.402H91.98l0.615-2.348c0.435-0.455,0.843-0.774,1.226-0.957c0.629-0.286,1.316-0.43,2.062-0.43
			c1.096,0,1.963,0.289,2.602,0.868s0.958,1.281,0.958,2.107c0,0.56-0.167,1.11-0.5,1.653c-0.333,0.544-0.898,1.098-1.696,1.664
			c0.737,0.098,1.318,0.266,1.746,0.504c0.427,0.238,0.755,0.574,0.983,1.008c0.229,0.434,0.342,0.918,0.342,1.453
			c0,0.776-0.244,1.54-0.731,2.29c-0.488,0.75-1.174,1.37-2.059,1.858c-0.884,0.49-1.843,0.734-2.877,0.734
			c-0.455,0-0.872-0.043-1.249-0.127C93.024,222.712,92.595,222.566,92.114,222.357z"/>
		<path fill="#FFFFFF" d="M108.523,222.658v-0.578c1.012-0.02,1.604-0.047,1.779-0.083c0.176-0.035,0.299-0.093,0.369-0.171
			c0.092-0.11,0.156-0.309,0.195-0.595c0.062-0.481,0.094-0.979,0.094-1.492v-0.722h-2.137c-1.178,0-2.227,0.021-3.15,0.062
			l-0.166-0.531c0.501-0.942,1.172-2.096,2.012-3.461c1.223-1.988,2.443-3.902,3.66-5.742c0.072-0.033,0.248-0.108,0.529-0.227
			c0.496-0.197,0.779-0.31,0.852-0.336l0.244,0.117c-0.047,0.781-0.077,1.744-0.09,2.89c-0.034,2.414-0.051,3.738-0.051,3.973v2.021
			c0.883-0.006,1.607-0.027,2.172-0.062c-0.021,0.324-0.031,0.537-0.031,0.641l0.031,0.719c-0.662-0.041-1.221-0.062-1.676-0.062
			h-0.496v0.653c0,1.093,0.049,1.759,0.146,1.999c0.039,0.098,0.117,0.176,0.233,0.234c0.247,0.111,0.845,0.17,1.792,0.176v0.578
			c-1.404-0.041-2.484-0.062-3.239-0.062C110.783,222.596,109.76,222.617,108.523,222.658z M106.797,217.783h4.164l0.094-6.938
			c-0.709,1.021-1.512,2.271-2.407,3.747C107.752,216.069,107.135,217.133,106.797,217.783z"/>
		<path fill="#FFFFFF" d="M120.97,222.441c-0.149-0.443-0.271-0.781-0.361-1.017l-0.645-1.593l0.479-0.283
			c0.587,1.065,0.948,1.661,1.085,1.788c0.137,0.126,0.443,0.274,0.918,0.443c0.477,0.169,0.962,0.253,1.457,0.253
			c0.652,0,1.223-0.137,1.715-0.41c0.492-0.272,0.873-0.681,1.145-1.225c0.27-0.543,0.405-1.198,0.405-1.966
			c0-1.132-0.308-1.971-0.924-2.518c-0.616-0.546-1.345-0.819-2.185-0.819c-0.496,0-0.945,0.094-1.35,0.281
			c-0.307,0.149-0.672,0.454-1.095,0.914l-0.4-0.117l0.12-2.407c0.014-0.363,0.021-0.659,0.021-0.887v-1.734
			c0-0.52-0.017-1.039-0.049-1.559c-0.013-0.202-0.022-0.364-0.029-0.487l0.128-0.098c1.062,0.084,2.176,0.125,3.343,0.125
			c0.991,0,2.177-0.041,3.559-0.125l0.049,0.098c-0.031,0.334-0.047,0.634-0.047,0.902c0,0.131,0.007,0.355,0.02,0.676l-0.099,0.059
			c-0.908-0.062-2.267-0.094-4.076-0.094c-0.666,0-1.297,0.011-1.892,0.031c-0.102,0.895-0.169,2.244-0.203,4.047
			c0.521-0.381,0.989-0.646,1.407-0.794c0.416-0.147,0.879-0.222,1.387-0.222c0.756,0,1.447,0.162,2.076,0.484
			c0.628,0.322,1.111,0.787,1.449,1.394c0.34,0.606,0.509,1.272,0.509,1.996c0,1.128-0.384,2.178-1.153,3.149
			c-1.16,1.475-2.717,2.211-4.672,2.211c-0.43,0-0.797-0.037-1.1-0.112S121.328,222.624,120.97,222.441z"/>
		<path fill="#FFFFFF" d="M142.42,209.078l0.016,0.118c-0.723,0.163-1.479,0.485-2.268,0.967s-1.434,1.03-1.936,1.646
			s-0.875,1.246-1.119,1.895c-0.244,0.647-0.402,1.391-0.475,2.23c0.377-0.266,0.657-0.466,0.84-0.602
			c0.468-0.363,0.769-0.58,0.902-0.651c0.133-0.071,0.314-0.135,0.545-0.189c0.231-0.056,0.51-0.083,0.834-0.083
			c1.133,0,2.007,0.322,2.625,0.965c0.617,0.645,0.926,1.576,0.926,2.799c0,0.832-0.152,1.557-0.459,2.174
			c-0.312,0.631-0.652,1.108-1.02,1.434s-0.791,0.6-1.27,0.824c-0.479,0.224-1.066,0.336-1.762,0.336
			c-1.191,0-2.178-0.45-2.959-1.352s-1.172-2.215-1.172-3.939c0-1.184,0.184-2.277,0.553-3.279c0.367-1.002,0.869-1.865,1.508-2.587
			c0.637-0.723,1.396-1.355,2.279-1.899c0.881-0.543,1.781-0.926,2.697-1.146L142.42,209.078z M136.451,218.386
			c0,0.513,0.059,1.021,0.177,1.527c0.071,0.299,0.171,0.591,0.298,0.876s0.295,0.541,0.5,0.769
			c0.205,0.227,0.449,0.402,0.734,0.525c0.283,0.123,0.592,0.185,0.924,0.185c0.451,0,0.87-0.121,1.258-0.365
			c0.389-0.242,0.701-0.639,0.939-1.187s0.357-1.176,0.357-1.883c0-0.681-0.115-1.275-0.348-1.785
			c-0.23-0.509-0.551-0.884-0.959-1.123c-0.406-0.24-0.84-0.36-1.295-0.36c-0.574,0-1.136,0.191-1.684,0.574
			c-0.392,0.272-0.64,0.56-0.744,0.861C136.504,217.301,136.451,217.764,136.451,218.386z"/>
		<path fill="#FFFFFF" d="M149.605,222.658l-0.205-0.219c0.227-0.337,0.871-1.339,1.934-3.007c0.344-0.551,1.203-1.939,2.578-4.165
			c0.559-0.908,1.314-2.193,2.266-3.854c0.084-0.143,0.201-0.357,0.352-0.643l-0.098-0.098h-3.023c-0.609,0-1.24,0.012-1.895,0.034
			s-1.053,0.063-1.197,0.122c-0.085,0.033-0.146,0.075-0.186,0.127l-0.079,0.117l-0.284,2.131h-0.562l0.049-2.586
			c0-0.426-0.018-0.963-0.049-1.611l0.195-0.1c0.52,0.051,1.232,0.099,2.139,0.143c1.172,0.051,1.939,0.076,2.305,0.076
			c0.812,0,2.262-0.052,4.346-0.156v0.606l-1.406,2.488c-0.301,0.538-1.023,1.862-2.168,3.971c-0.801,1.479-1.502,2.854-2.1,4.126
			c-0.457,0.967-0.814,1.798-1.074,2.496c-0.371-0.041-0.684-0.062-0.938-0.062C150.23,222.596,149.93,222.617,149.605,222.658z"/>
		<path fill="#FFFFFF" d="M165.857,215.664c-0.803-0.423-1.373-0.891-1.709-1.402c-0.336-0.511-0.504-1.096-0.504-1.754
			c0-1.01,0.375-1.864,1.123-2.564s1.734-1.051,2.959-1.051c0.703,0,1.328,0.121,1.879,0.361c0.55,0.241,0.965,0.584,1.244,1.026
			c0.28,0.443,0.42,0.925,0.42,1.446c0,0.397-0.086,0.789-0.258,1.173c-0.172,0.385-0.449,0.759-0.832,1.124
			c-0.293,0.273-0.725,0.59-1.295,0.947v0.088c0.819,0.391,1.379,0.696,1.679,0.918c0.403,0.293,0.716,0.65,0.937,1.073
			c0.222,0.423,0.332,0.911,0.332,1.464c0,0.729-0.207,1.449-0.621,2.161c-0.413,0.712-0.992,1.265-1.738,1.659
			c-0.746,0.393-1.543,0.59-2.391,0.59c-0.736,0-1.409-0.151-2.018-0.453c-0.609-0.303-1.074-0.723-1.394-1.26
			c-0.319-0.536-0.479-1.133-0.479-1.79c0-0.787,0.236-1.499,0.706-2.137s1.124-1.148,1.96-1.532V215.664z M166.648,216.016
			c-0.748,0.455-1.279,0.934-1.594,1.435s-0.473,1.106-0.473,1.815c0,0.599,0.115,1.125,0.344,1.581s0.565,0.804,1.012,1.044
			c0.447,0.241,0.93,0.361,1.445,0.361c0.535,0,1.03-0.123,1.487-0.371c0.456-0.247,0.804-0.597,1.042-1.049
			s0.357-0.958,0.357-1.518c0-0.481-0.101-0.889-0.303-1.22c-0.201-0.332-0.548-0.647-1.039-0.947
			C168.436,216.849,167.676,216.471,166.648,216.016z M168.133,214.728c0.66-0.423,1.121-0.843,1.385-1.259
			c0.262-0.417,0.393-0.908,0.393-1.475c0-0.468-0.096-0.893-0.287-1.273c-0.191-0.38-0.471-0.668-0.838-0.863
			s-0.785-0.293-1.252-0.293c-0.729,0-1.309,0.203-1.74,0.61c-0.432,0.406-0.648,0.938-0.648,1.595c0,0.645,0.192,1.149,0.576,1.514
			C166.105,213.647,166.908,214.129,168.133,214.728z"/>
		<path fill="#FFFFFF" d="M178.164,222.658v-0.186c1.178-0.279,2.217-0.724,3.117-1.332c0.899-0.608,1.614-1.434,2.145-2.475
			c0.418-0.82,0.68-1.776,0.785-2.869c-0.295,0.201-0.641,0.479-1.039,0.83c-0.236,0.215-0.416,0.358-0.539,0.43
			c-0.189,0.124-0.404,0.222-0.645,0.293c-0.312,0.092-0.652,0.137-1.016,0.137c-1.042,0-1.898-0.352-2.568-1.055
			s-1.006-1.667-1.006-2.892c0-1.394,0.42-2.521,1.26-3.385c0.838-0.862,1.896-1.294,3.172-1.294c0.813,0,1.543,0.2,2.187,0.601
			s1.149,0.984,1.519,1.753c0.367,0.768,0.551,1.764,0.551,2.987c0,1.511-0.277,2.832-0.832,3.965
			c-0.672,1.38-1.667,2.516-2.984,3.407c-1.104,0.749-2.255,1.214-3.455,1.396L178.164,222.658z M179.07,212.9
			c0,0.553,0.096,1.104,0.289,1.654s0.498,0.973,0.916,1.269s0.906,0.444,1.461,0.444c0.765,0,1.384-0.257,1.857-0.771
			c0.475-0.514,0.711-1.288,0.711-2.322c0-1.021-0.225-1.884-0.672-2.586c-0.447-0.703-1.1-1.055-1.955-1.055
			c-0.745,0-1.365,0.281-1.863,0.844C179.318,210.94,179.07,211.781,179.07,212.9z"/>
	</g>
	<g>
		<path fill="#FFFFFF" d="M141.358,65.631l-2.95-0.777c0.037-0.851,0.056-2.016,0.056-3.496c0-1.555-0.019-2.794-0.056-3.72
			c4.717-3.07,8.579-5.143,11.587-6.216c2.303-0.777,4.884-1.166,7.744-1.166c4.233,0,7.799,0.798,10.695,2.394
			s5.051,3.878,6.463,6.847c0.965,2.078,1.448,4.917,1.448,8.517l-0.25,10.186v16.588c0,1.781,0.147,3.062,0.444,3.841
			c0.222,0.557,0.573,0.965,1.055,1.225c0.369,0.223,1.146,0.371,2.331,0.445l3.607,0.334v3.188
			c-3.035-0.25-5.699-0.375-7.993-0.375c-2.221,0-5.182,0.125-8.882,0.375l0.25-9.807c-7.57,5.716-12.06,8.936-13.47,9.659
			c-1.41,0.723-3.191,1.085-5.344,1.085c-4.49,0-7.987-1.197-10.492-3.592s-3.757-5.579-3.757-9.552c0-2.562,0.436-4.9,1.308-7.017
			s1.921-3.796,3.146-5.04s2.468-2.163,3.729-2.758c2.151-1.002,5.648-2.079,10.491-3.23c4.842-1.15,9.639-2.005,14.389-2.562
			c0.037-3.517-0.39-6.256-1.28-8.218s-2.394-3.572-4.509-4.831s-4.694-1.889-7.737-1.889c-2.189,0-4.11,0.295-5.762,0.885
			s-2.662,1.087-3.033,1.492l-1.002,1.989C142.583,62.646,141.841,64.379,141.358,65.631z M166.908,74.381
			c-4.82,0.817-8.937,1.728-12.348,2.73c-3.412,1.003-5.822,2.043-7.231,3.12c-0.854,0.632-1.595,1.579-2.225,2.842
			c-0.965,1.857-1.446,3.919-1.446,6.185c0,2.749,0.76,4.895,2.28,6.436c1.52,1.542,3.634,2.312,6.341,2.312
			c2.484,0,4.94-0.713,7.37-2.14c2.429-1.426,4.849-3.565,7.259-6.419V74.381z"/>
	</g>
	<g>
		<path d="M13.437,74.354v-0.797c0.619-0.008,1.004-0.033,1.157-0.076c0.152-0.043,0.293-0.125,0.422-0.246s0.315-0.436,0.558-0.943
			c0.141-0.289,0.65-1.386,1.527-3.292l2.936-6.607c0.321-0.727,1.006-2.343,2.056-4.851h0.75l5.014,11.751
			c0.813,1.906,1.354,3.101,1.62,3.585c0.148,0.273,0.311,0.453,0.487,0.539c0.176,0.086,0.573,0.133,1.191,0.141v0.797
			c-1.221-0.083-2.074-0.125-2.56-0.125l-3.777,0.125v-0.797c0.875-0.016,1.406-0.043,1.594-0.082s0.314-0.096,0.381-0.17
			s0.1-0.166,0.1-0.275c0-0.172-0.055-0.395-0.165-0.668l-1.441-3.586h-6.792l-1.287,3.012c-0.227,0.539-0.34,0.934-0.34,1.184
			c0,0.109,0.031,0.199,0.094,0.27c0.086,0.102,0.219,0.172,0.398,0.211c0.289,0.062,0.797,0.098,1.523,0.105v0.797
			c-1.32-0.072-2.309-0.109-2.965-0.109C15.163,74.244,14.335,74.281,13.437,74.354z M18.902,67.775h5.908l-2.917-7.048
			L18.902,67.775z"/>
		<path d="M34.513,66.322l-0.621-0.164c0.008-0.18,0.012-0.426,0.012-0.739c0-0.329-0.004-0.591-0.012-0.786
			c0.993-0.649,1.806-1.087,2.438-1.314c0.484-0.164,1.028-0.246,1.63-0.246c0.891,0,1.642,0.168,2.251,0.504
			s1.063,0.817,1.36,1.442c0.203,0.438,0.305,1.035,0.305,1.794l-0.062,2.145v3.494c0,0.375,0.031,0.645,0.094,0.809
			c0.047,0.117,0.122,0.203,0.224,0.258c0.079,0.047,0.244,0.078,0.495,0.094l0.766,0.07v0.672
			c-0.644-0.052-1.208-0.078-1.695-0.078c-0.471,0-1.099,0.026-1.883,0.078l0.062-2.061c-1.592,1.204-2.536,1.883-2.833,2.035
			c-0.296,0.152-0.671,0.229-1.124,0.229c-0.944,0-1.68-0.252-2.207-0.757c-0.527-0.504-0.79-1.175-0.79-2.012
			c0-0.54,0.092-1.032,0.275-1.479c0.183-0.445,0.404-0.8,0.662-1.062c0.257-0.262,0.519-0.455,0.784-0.581
			c0.453-0.211,1.188-0.438,2.207-0.68c1.018-0.243,2.027-0.423,3.026-0.54c0.008-0.743-0.082-1.322-0.269-1.736
			c-0.188-0.415-0.503-0.755-0.947-1.021c-0.444-0.266-0.985-0.398-1.624-0.398c-0.459,0-0.863,0.062-1.209,0.188
			c-0.347,0.126-0.559,0.231-0.637,0.317l-0.21,0.423C34.77,65.688,34.614,66.057,34.513,66.322z M39.876,68.166
			c-1.014,0.172-1.88,0.363-2.598,0.574s-1.225,0.43-1.521,0.656c-0.18,0.133-0.336,0.332-0.468,0.598
			c-0.203,0.391-0.304,0.824-0.304,1.301c0,0.578,0.16,1.029,0.479,1.354c0.32,0.324,0.765,0.486,1.334,0.486
			c0.522,0,1.039-0.15,1.55-0.451c0.511-0.3,1.02-0.751,1.527-1.352V68.166z"/>
	</g>
	<g>
		<path d="M14.375,103.61v-0.688c0.703-0.062,1.101-0.113,1.195-0.152c0.055-0.023,0.113-0.066,0.176-0.129s0.351-0.477,0.867-1.242
			l1.09-1.688l8.106-12.835h1.113l1.961,14.16c0.094,0.664,0.176,1.102,0.247,1.312c0.055,0.141,0.124,0.244,0.206,0.311
			s0.205,0.111,0.37,0.135c0.047,0.008,0.458,0.051,1.233,0.129v0.688l-3.119-0.094c-0.203,0-1.105,0.031-2.707,0.094v-0.688
			c0.844-0.031,1.375-0.066,1.594-0.105c0.148-0.038,0.254-0.097,0.316-0.174c0.062-0.078,0.094-0.214,0.094-0.408
			c0-0.109-0.004-0.222-0.012-0.338l-0.141-1.445l-0.457-3.467h-5.863l-1.848,3.08c-0.678,1.187-1.064,1.901-1.158,2.143
			c-0.031,0.094-0.047,0.18-0.047,0.258c0,0.094,0.041,0.174,0.123,0.24s0.274,0.115,0.579,0.146
			c0.132,0.016,0.562,0.039,1.288,0.07v0.688l-3.159-0.094C15.898,103.517,15.217,103.548,14.375,103.61z M21.225,96.063h5.154
			l-0.887-6.822L21.225,96.063z"/>
		<path d="M41.537,101.126l0.129,0.5l-1.663,1.359c-0.525,0.398-0.943,0.668-1.253,0.809c-0.104,0.055-0.2,0.082-0.289,0.082
			c-0.133,0-0.263-0.074-0.388-0.223c-0.126-0.148-0.188-0.332-0.188-0.551c0-0.828,0.256-2.207,0.769-4.136l-0.065-0.036
			c-0.608,0.829-1.087,1.439-1.436,1.83c-0.633,0.727-1.276,1.356-1.929,1.888c-0.653,0.532-1.247,0.915-1.782,1.149
			c-0.154,0.062-0.3,0.094-0.438,0.094c-0.219,0-0.394-0.102-0.523-0.305c-0.219-0.328-0.329-0.884-0.329-1.665
			c0-1.001,0.186-2.174,0.559-3.519c0.372-1.345,0.814-2.514,1.327-3.506c0.256-0.5,0.621-0.927,1.093-1.278
			c0.777-0.578,1.478-0.981,2.102-1.208c0.425-0.148,0.893-0.223,1.405-0.223c0.353,0,0.683,0.027,0.991,0.082
			s0.703,0.168,1.184,0.34l0.769-0.453l0.258,0.211c-0.498,1.729-0.938,3.363-1.318,4.904c-0.297,0.923-0.5,1.615-0.609,2.076
			c-0.188,0.729-0.336,1.42-0.446,2.077c-0.016,0.125-0.023,0.231-0.023,0.317c0,0.156,0.031,0.277,0.094,0.363
			c0.055,0.055,0.129,0.082,0.223,0.082c0.125,0,0.287-0.051,0.485-0.151C40.442,101.936,40.874,101.632,41.537,101.126z
			 M39.808,93.771c-0.3-0.141-0.617-0.244-0.949-0.311s-0.682-0.1-1.046-0.1c-0.706,0-1.242,0.113-1.606,0.34
			c-0.171,0.102-0.357,0.358-0.56,0.771c-0.414,0.828-0.771,1.752-1.071,2.774c-0.471,1.592-0.706,2.992-0.706,4.201
			c0,0.211,0.018,0.366,0.055,0.468s0.091,0.178,0.164,0.229c0.073,0.051,0.143,0.076,0.207,0.076c0.154,0,0.39-0.102,0.706-0.305
			c0.625-0.413,1.282-1.006,1.972-1.778c0.689-0.772,1.257-1.65,1.704-2.634C39.123,96.521,39.5,95.276,39.808,93.771z"/>
	</g>
	<g>
		<path d="M56.091,77.307v-0.762c1.278-0.974,2.291-1.59,3.039-1.848c-1.976,0-3.573-0.324-4.791-0.973
			c-1.218-0.649-2.194-1.669-2.928-3.061c-0.734-1.391-1.101-2.942-1.101-4.654c0-2.517,0.832-4.586,2.495-6.208
			c1.663-1.622,3.85-2.433,6.56-2.433c1.351,0,2.562,0.191,3.631,0.574c1.07,0.383,1.958,0.909,2.665,1.577
			c0.707,0.669,1.247,1.405,1.622,2.21c0.508,1.086,0.762,2.333,0.762,3.74c0,1.673-0.35,3.184-1.048,4.531s-1.72,2.437-3.063,3.266
			c-1.344,0.828-2.858,1.305-4.545,1.43c0.422,0.058,0.801,0.126,1.137,0.206s0.82,0.249,1.453,0.507
			c1.422,0.57,2.459,0.939,3.111,1.106s1.213,0.251,1.682,0.251c0.312,0,0.727-0.082,1.242-0.246v0.598
			c-0.156,0.117-0.344,0.234-0.562,0.352c-0.414,0.234-0.701,0.408-0.861,0.521s-0.318,0.244-0.475,0.393
			c-0.109,0-0.363-0.027-0.761-0.082c-0.398-0.055-0.807-0.139-1.224-0.251c-0.417-0.113-1.154-0.354-2.208-0.72
			c-1.991-0.679-3.213-1.018-3.666-1.018c-0.156,0-0.32,0.027-0.492,0.084c-0.172,0.055-0.367,0.143-0.586,0.263L56.091,77.307z
			 M52.747,65.41c0,0.766,0.104,1.594,0.311,2.484s0.488,1.671,0.843,2.343s0.794,1.262,1.318,1.769
			c0.523,0.508,1.129,0.906,1.816,1.195s1.492,0.434,2.414,0.434c1.257,0,2.354-0.289,3.292-0.867
			c0.937-0.578,1.644-1.437,2.12-2.577s0.715-2.44,0.715-3.901c0-1.203-0.162-2.315-0.486-3.339s-0.764-1.86-1.318-2.513
			c-0.555-0.652-1.253-1.16-2.097-1.523s-1.781-0.545-2.812-0.545c-1.882,0-3.372,0.59-4.469,1.77
			C53.296,61.317,52.747,63.075,52.747,65.41z"/>
		<path d="M82.214,80.275v0.672c-0.852-0.053-1.848-0.078-2.988-0.078c-1.195,0-2.215,0.025-3.059,0.078v-0.672
			c0.908-0.023,1.397-0.039,1.468-0.047c0.133-0.031,0.234-0.072,0.305-0.123s0.125-0.123,0.165-0.217
			c0.078-0.172,0.125-0.445,0.141-0.819c0-0.039,0.013-0.562,0.039-1.569c0.026-1.008,0.039-1.577,0.039-1.71v-3.127
			c-0.203,0.102-0.396,0.205-0.58,0.311s-0.419,0.252-0.708,0.439l-1.546,1.019c-0.391,0.062-0.738,0.094-1.042,0.094
			c-1.531,0-2.694-0.547-3.491-1.64c-0.796-1.093-1.194-2.307-1.194-3.642c0-0.617,0.084-1.232,0.252-1.845s0.375-1.103,0.621-1.47
			c0.246-0.367,0.564-0.698,0.955-0.995c0.219-0.164,0.71-0.455,1.476-0.873c0.765-0.417,1.28-0.669,1.546-0.755
			c0.484-0.156,0.999-0.234,1.546-0.234c0.516,0,1.015,0.064,1.499,0.193c0.484,0.129,1.015,0.338,1.593,0.627l1.205-0.773
			l0.434,0.258c-0.258,0.719-0.414,1.297-0.469,1.734c-0.094,0.766-0.141,2.074-0.141,3.926v6.75l0.021,1.629
			c0.021,0.938,0.035,1.488,0.042,1.652c0.008,0.391,0.051,0.676,0.13,0.855c0.039,0.078,0.09,0.143,0.153,0.193
			c0.062,0.051,0.157,0.088,0.283,0.111C80.952,80.236,81.388,80.252,82.214,80.275z M78.323,65.244
			c-0.305-0.305-0.732-0.584-1.282-0.838c-0.551-0.254-1.1-0.381-1.646-0.381c-0.992,0-1.827,0.385-2.507,1.154
			c-0.679,0.77-1.019,1.842-1.019,3.217c0,0.883,0.158,1.719,0.475,2.508c0.316,0.789,0.753,1.363,1.312,1.723
			c0.558,0.359,1.173,0.539,1.845,0.539c0.554,0,1.062-0.133,1.522-0.398c0.46-0.266,0.894-0.648,1.3-1.148
			c0.023-2.023,0.035-3.305,0.035-3.844C78.358,66.955,78.347,66.111,78.323,65.244z"/>
	</g>
	<g>
		<path d="M52.413,97.133c0-1.062,0.133-2.104,0.398-3.125c0.265-1.021,0.677-1.979,1.235-2.879
			c0.559-0.898,1.189-1.661,1.892-2.286c0.703-0.626,1.554-1.144,2.554-1.555c1-0.41,2.183-0.615,3.549-0.615
			c1.07,0,2.038,0.143,2.905,0.428c0.866,0.285,1.583,0.694,2.149,1.226c0.566,0.532,0.989,1.118,1.271,1.759
			c0.375,0.86,0.562,1.904,0.562,3.131c0,2.01-0.471,3.892-1.412,5.646c-0.941,1.756-2.167,3.054-3.678,3.894
			c-1.511,0.841-3.125,1.261-4.843,1.261c-1.086,0-2.075-0.17-2.97-0.51c-0.894-0.34-1.599-0.812-2.114-1.413
			c-0.515-0.603-0.894-1.343-1.136-2.223C52.534,98.992,52.413,98.079,52.413,97.133z M54.753,107.716l-0.594-0.34
			c-0.008-0.164-0.012-0.289-0.012-0.375c0-0.744,0.199-1.396,0.597-1.96c0.531-0.735,1.3-1.103,2.307-1.103
			c0.352,0,0.701,0.043,1.048,0.129c0.348,0.086,1.15,0.406,2.407,0.961c2.717,1.273,4.508,1.91,5.375,1.91
			c0.373,0,0.689-0.138,0.95-0.412c0.26-0.274,0.449-0.772,0.565-1.494h0.594c-0.078,1.154-0.367,2.008-0.866,2.561
			s-1.101,0.83-1.803,0.83c-0.335,0-0.655-0.039-0.959-0.118c-0.429-0.11-0.921-0.282-1.475-0.519
			c-0.375-0.173-1.295-0.656-2.762-1.449c-1.155-0.613-1.982-1.014-2.481-1.202c-0.312-0.11-0.632-0.165-0.959-0.165
			c-0.594,0-1.065,0.202-1.417,0.607c-0.351,0.404-0.526,1-0.526,1.785C54.741,107.44,54.745,107.559,54.753,107.716z
			 M54.507,97.128c0,1.313,0.205,2.409,0.614,3.289c0.41,0.879,1.026,1.529,1.85,1.951s1.77,0.633,2.839,0.633
			c1.537,0,2.817-0.406,3.84-1.219s1.809-2.024,2.359-3.634c0.55-1.61,0.825-3.204,0.825-4.782c0-1.353-0.23-2.446-0.691-3.282
			c-0.46-0.837-1.108-1.458-1.943-1.864c-0.835-0.406-1.764-0.609-2.787-0.609c-0.937,0-1.77,0.156-2.499,0.469
			c-0.73,0.312-1.321,0.693-1.774,1.143c-0.452,0.449-0.868,1.034-1.247,1.753s-0.681,1.505-0.907,2.356
			C54.667,94.55,54.507,95.815,54.507,97.128z"/>
		<path d="M75.11,110.251l-0.214-0.293c0.157-0.133,0.264-0.246,0.319-0.34c0.071-0.117,0.158-0.391,0.26-0.82
			c0.205-0.891,0.57-2.749,1.097-5.576c0.149-0.788,0.401-2.257,0.754-4.404c-0.654,1.031-1.426,1.977-2.314,2.836
			c-0.888,0.859-1.737,1.492-2.548,1.898c-0.39,0.195-0.678,0.293-0.865,0.293c-0.21,0-0.401-0.133-0.573-0.398
			c-0.273-0.406-0.409-0.988-0.409-1.746c0-1.008,0.168-2.189,0.504-3.545s0.734-2.396,1.195-3.123
			c0.258-0.406,0.652-0.816,1.184-1.23c0.688-0.539,1.268-0.93,1.74-1.172s0.982-0.363,1.529-0.363c0.922,0,1.734,0.18,2.438,0.539
			l0.773-0.57l0.34,0.164c-0.268,1.078-0.646,2.794-1.134,5.146c-0.397,1.907-0.747,3.782-1.05,5.626
			c-0.389,2.407-0.712,4.607-0.968,6.6C76.328,109.942,75.642,110.103,75.11,110.251z M78.359,94.024
			c-0.702-0.391-1.417-0.586-2.143-0.586c-0.492,0-0.929,0.062-1.312,0.188c-0.25,0.086-0.449,0.211-0.597,0.375
			c-0.297,0.336-0.613,0.954-0.949,1.853c-0.336,0.899-0.597,1.938-0.784,3.118c-0.148,0.876-0.223,1.614-0.223,2.217
			c0,0.383,0.057,0.65,0.169,0.803s0.24,0.229,0.38,0.229c0.147,0,0.37-0.078,0.667-0.234c0.514-0.266,1.113-0.742,1.795-1.431
			c0.682-0.688,1.218-1.35,1.608-1.987c0.39-0.637,0.67-1.307,0.842-2.01C78.051,95.58,78.233,94.736,78.359,94.024z"/>
	</g>
	<g>
		<path d="M91.158,58.463v-0.75c0.304,0.007,0.769,0.017,1.393,0.029l2.247,0.049c0.445,0,1.135-0.015,2.071-0.044
			c1.217-0.044,1.923-0.065,2.118-0.065c1.49,0,2.576,0.133,3.259,0.398s1.211,0.698,1.586,1.296
			c0.374,0.599,0.562,1.249,0.562,1.953c0,0.656-0.176,1.31-0.525,1.958c-0.351,0.649-0.859,1.188-1.524,1.619
			c-0.666,0.43-1.532,0.762-2.599,0.996c0.195,0.273,0.656,0.881,1.384,1.824l2.954,3.881c0.841,1.088,1.331,1.695,1.471,1.82
			c0.07,0.055,0.141,0.094,0.21,0.117c0.117,0.039,0.374,0.059,0.771,0.059v0.75c-0.588-0.052-1.102-0.078-1.543-0.078
			c-0.456,0-1.017,0.026-1.682,0.078c-0.51-0.585-1.364-1.729-2.564-3.429c-0.666-0.944-1.255-1.732-1.765-2.364
			c-0.823-1.045-1.607-1.993-2.353-2.844l0.117-0.352c0.405,0.023,0.712,0.035,0.922,0.035c1.417,0,2.491-0.336,3.223-1.008
			c0.731-0.673,1.098-1.561,1.098-2.662c0-0.962-0.314-1.726-0.944-2.293c-0.63-0.566-1.582-0.85-2.856-0.85
			c-0.801,0-1.586,0.12-2.355,0.359c-0.032,0.422-0.056,0.816-0.072,1.184c-0.008,0.109-0.036,1.246-0.084,3.409v5.201
			c0,1.062,0.021,2.098,0.062,3.104c0.016,0.742,0.067,1.184,0.157,1.324s0.234,0.244,0.436,0.311
			c0.201,0.066,0.759,0.107,1.673,0.123v0.75c-1.109-0.052-2.129-0.078-3.059-0.078c-0.75,0-2.012,0.026-3.785,0.078v-0.75
			c0.914-0.016,1.472-0.057,1.673-0.123s0.341-0.158,0.418-0.275c0.093-0.156,0.151-0.534,0.174-1.136
			c0.01-0.163,0.031-1.272,0.062-3.325v-5.422c0-1.062-0.011-2.1-0.031-3.115c-0.023-0.741-0.08-1.18-0.17-1.316
			s-0.234-0.238-0.434-0.305S92.088,58.479,91.158,58.463z"/>
		<path d="M107.461,74.354v-0.672c0.885-0.016,1.361-0.031,1.433-0.047c0.133-0.023,0.232-0.061,0.299-0.111s0.12-0.123,0.159-0.217
			c0.078-0.179,0.125-0.46,0.141-0.842c0.041-2.084,0.062-3.172,0.062-3.266v-1.393c0-0.624-0.011-1.295-0.031-2.014
			c-0.016-0.46-0.049-0.732-0.1-0.818c-0.052-0.086-0.142-0.15-0.271-0.193c-0.129-0.043-0.641-0.061-1.535-0.053v-0.672
			c1.58-0.218,2.733-0.502,3.461-0.852c0.156-0.078,0.262-0.117,0.316-0.117s0.098,0.02,0.129,0.059s0.047,0.098,0.047,0.176
			c0,0.055-0.004,0.116-0.012,0.187c-0.037,0.476-0.059,1.212-0.066,2.21c0.351-0.406,0.674-0.808,0.97-1.206
			s0.511-0.655,0.644-0.772c0.233-0.203,0.502-0.365,0.807-0.486c0.303-0.121,0.619-0.182,0.946-0.182s0.65,0.07,0.97,0.211
			l0.07,0.163c-0.119,1.038-0.188,1.95-0.203,2.738h-0.527c-0.179-0.37-0.387-0.641-0.624-0.811s-0.535-0.255-0.894-0.255
			c-0.599,0-1.108,0.248-1.528,0.743s-0.63,1.237-0.63,2.228v1.205c0,0.515,0.021,1.455,0.062,2.819
			c0.008,0.483,0.027,0.792,0.059,0.924c0.031,0.133,0.072,0.229,0.123,0.287s0.134,0.106,0.251,0.146
			c0.234,0.07,0.866,0.141,1.896,0.211v0.672c-1.375-0.052-2.547-0.078-3.516-0.078C109.367,74.275,108.398,74.302,107.461,74.354z"
			/>
	</g>
	<g>
		<path d="M91.024,103.61v-0.703c0.866-0.039,1.386-0.09,1.558-0.152c0.125-0.039,0.219-0.094,0.281-0.164
			c0.085-0.094,0.16-0.25,0.222-0.469c0.16-0.617,0.444-2.153,0.851-4.607c0.322-1.766,0.593-3.297,0.813-4.594
			c0.462-2.579,0.693-4.041,0.693-4.385c0-0.336-0.1-0.549-0.299-0.639s-0.83-0.17-1.892-0.24l0.082-0.688l3.575,0.047l3.094-0.047
			c0.813,0,1.427,0.035,1.841,0.105c0.602,0.102,1.104,0.282,1.507,0.544c0.402,0.261,0.727,0.604,0.973,1.029
			s0.369,0.926,0.369,1.503c0,0.624-0.141,1.223-0.422,1.795c-0.281,0.573-0.652,1.072-1.112,1.497
			c-0.461,0.425-0.963,0.759-1.505,1.001c-0.543,0.241-1.236,0.433-2.079,0.572l1.51,2.191c1.17,1.756,1.892,2.832,2.165,3.229
			c0.858,1.212,1.394,1.915,1.604,2.109c0.132,0.125,0.28,0.216,0.444,0.273c0.164,0.059,0.395,0.088,0.691,0.088v0.703
			l-1.598-0.078l-1.516,0.078l-1.759-2.938c-0.212-0.345-0.905-1.398-2.077-3.16c-0.842-1.277-1.476-2.197-1.9-2.762l0.117-0.281
			c0.562,0.031,0.882,0.047,0.96,0.047c0.82,0,1.566-0.173,2.238-0.52c0.671-0.347,1.196-0.84,1.575-1.479s0.568-1.301,0.568-1.986
			c0-0.834-0.256-1.482-0.768-1.945c-0.513-0.463-1.312-0.695-2.398-0.695c-0.691,0-1.292,0.058-1.804,0.172
			c-0.092,0.336-0.205,0.855-0.338,1.559c-0.243,1.468-0.659,3.815-1.247,7.041c-0.477,2.444-0.751,3.929-0.824,4.451
			c-0.072,0.523-0.108,0.906-0.108,1.148c0,0.211,0.07,0.359,0.211,0.445c0.203,0.117,0.824,0.184,1.864,0.199v0.703
			c-1.397-0.062-2.487-0.094-3.267-0.094C93.071,103.517,92.105,103.548,91.024,103.61z"/>
		<path d="M108.344,103.876l-0.211-0.164c0.39-1.321,0.686-2.416,0.889-3.284c0.391-1.696,0.684-3.201,0.88-4.515
			c0.109-0.759,0.164-1.282,0.164-1.572c0-0.203-0.032-0.348-0.095-0.434c-0.039-0.062-0.103-0.094-0.188-0.094
			c-0.268,0-0.933,0.386-1.995,1.156l-0.283-0.391c1.059-0.875,1.983-1.523,2.775-1.945c0.549-0.297,0.956-0.445,1.223-0.445
			c0.142,0,0.255,0.047,0.342,0.141c0.086,0.094,0.129,0.238,0.129,0.434c0,0.211-0.055,0.594-0.164,1.148
			c-0.172,0.985-0.401,2.118-0.689,3.4c0.827-1.448,1.662-2.681,2.505-3.698c0.53-0.642,0.937-1.045,1.218-1.21
			c0.28-0.164,0.554-0.246,0.818-0.246c0.141,0,0.297,0.043,0.469,0.129c-0.136,0.69-0.271,1.557-0.406,2.598l-0.316,0.07
			c-0.234-0.312-0.494-0.469-0.783-0.469c-0.265,0-0.557,0.109-0.876,0.328c-0.514,0.344-1.046,0.932-1.595,1.765
			s-0.991,1.839-1.326,3.019c-0.188,0.642-0.479,1.931-0.877,3.869C109.246,103.622,108.711,103.759,108.344,103.876z"/>
	</g>
	<g>
		<path fill="#929497" d="M68.049,143.278c-1.337,0.482-2.432,0.807-3.284,0.973c-1.504,0.289-2.928,0.434-4.273,0.434
			c-2.031,0-3.838-0.397-5.421-1.192c-1.583-0.795-2.805-1.907-3.667-3.339s-1.292-3.123-1.292-5.072c0-1.713,0.31-3.169,0.93-4.367
			c0.62-1.199,1.394-2.185,2.321-2.958c0.927-0.772,1.853-1.344,2.776-1.713c1.415-0.562,3.165-0.843,5.248-0.843
			c0.976,0.009,2.002,0.121,3.079,0.336c1.077,0.215,2.292,0.511,3.646,0.889c-0.131,0.447-0.232,0.887-0.302,1.316
			c-0.07,0.431-0.162,1.312-0.276,2.646h-0.797l-0.066-1.498c-0.009-0.228-0.018-0.412-0.027-0.552s-0.065-0.319-0.171-0.539
			c-0.238-0.315-0.616-0.6-1.136-0.854c-0.897-0.341-1.639-0.568-2.224-0.683s-1.283-0.171-2.092-0.171
			c-1.672,0-3.12,0.355-4.343,1.066c-1.224,0.711-2.149,1.729-2.779,3.055c-0.629,1.326-0.944,2.773-0.944,4.345
			c0,1.729,0.367,3.286,1.102,4.668c0.734,1.383,1.72,2.44,2.956,3.173c1.236,0.733,2.676,1.1,4.321,1.1
			c0.774,0,1.524-0.074,2.25-0.223s1.339-0.354,1.841-0.615c0.083-0.352,0.125-0.915,0.125-1.688v-1.464
			c0-0.773-0.04-1.227-0.119-1.358s-0.292-0.23-0.639-0.297c-0.348-0.065-1.145-0.116-2.393-0.151v-0.797l4.111,0.094
			c0.797,0,1.612-0.031,2.445-0.094l0.079,0.641l-0.984,0.578c-0.104,0.939-0.156,1.803-0.156,2.592S67.944,142.357,68.049,143.278z
			"/>
		<path fill="#929497" d="M74.246,144.31v-0.689c0.542-0.255,0.886-0.457,1.035-0.606c0.087-0.079,0.148-0.18,0.183-0.303
			c0.079-0.246,0.131-0.773,0.157-1.582c0.042-1.204,0.062-1.92,0.062-2.148v-7.091c0-1.195-0.016-2.364-0.047-3.507
			c-0.026-0.835-0.09-1.329-0.191-1.482c-0.101-0.154-0.263-0.269-0.486-0.343c-0.224-0.075-0.857-0.121-1.901-0.139v-0.844
			c2.142,0.062,3.467,0.094,3.976,0.094c0.562,0,1.822-0.031,3.782-0.094v0.844c-1.046,0.018-1.681,0.063-1.905,0.139
			c-0.224,0.074-0.38,0.178-0.468,0.31c-0.105,0.176-0.171,0.602-0.198,1.278c-0.01,0.176-0.031,1.423-0.062,3.742v8.855
			c0,0.923,0.021,1.674,0.062,2.254c1.003,0.062,1.998,0.094,2.984,0.094c2.482,0,4.221-0.156,5.216-0.469
			c0.114-0.264,0.215-0.566,0.304-0.908l0.528-2.186h0.891c-0.192,1.309-0.379,2.845-0.562,4.609
			c-0.361,0.07-0.647,0.115-0.858,0.133c-0.458,0.025-1.162,0.039-2.112,0.039l-7.815-0.094
			C75.975,144.216,75.117,144.247,74.246,144.31z"/>
		<path fill="#929497" d="M92.407,135.067c0-1.388,0.208-2.67,0.626-3.847s1.109-2.235,2.076-3.175
			c0.966-0.939,2.06-1.648,3.281-2.128c1.221-0.479,2.618-0.718,4.191-0.718c1.449,0,2.767,0.204,3.953,0.612
			c1.186,0.409,2.158,0.948,2.918,1.62s1.359,1.408,1.799,2.207c0.334,0.598,0.6,1.3,0.798,2.108
			c0.197,0.808,0.296,1.673,0.296,2.595c0,2.96-0.994,5.424-2.984,7.391c-1.99,1.968-4.5,2.951-7.531,2.951
			c-1.379,0-2.666-0.225-3.86-0.672c-1.195-0.447-2.205-1.113-3.031-1.996c-0.825-0.883-1.454-1.954-1.884-3.214
			C92.622,137.542,92.407,136.297,92.407,135.067z M95.157,133.976c0,0.834,0.083,1.681,0.25,2.541s0.377,1.602,0.632,2.225
			c0.421,1.054,0.972,1.938,1.652,2.653c0.68,0.716,1.439,1.242,2.277,1.58s1.767,0.507,2.785,0.507
			c1.413,0,2.642-0.345,3.686-1.033c1.045-0.689,1.824-1.659,2.338-2.91s0.77-2.692,0.77-4.325c0-1.396-0.184-2.682-0.553-3.858
			c-0.229-0.719-0.531-1.371-0.908-1.955s-0.827-1.093-1.35-1.527s-1.2-0.801-2.034-1.1c-0.834-0.298-1.733-0.447-2.699-0.447
			c-1.396,0-2.62,0.312-3.673,0.935c-1.053,0.624-1.845,1.525-2.376,2.706S95.157,132.483,95.157,133.976z"/>
		<path fill="#929497" d="M116.285,126.419v-0.844c0.343,0.008,0.865,0.02,1.568,0.035l2.531,0.059c0.5,0,1.278-0.017,2.332-0.05
			c1.371-0.05,2.166-0.075,2.386-0.075c1.679,0,2.901,0.149,3.671,0.449c0.769,0.299,1.364,0.785,1.786,1.459
			c0.421,0.673,0.632,1.405,0.632,2.197c0,0.739-0.197,1.475-0.592,2.205c-0.396,0.73-0.969,1.338-1.719,1.821
			c-0.751,0.484-1.729,0.858-2.931,1.122c0.22,0.308,0.738,0.992,1.556,2.055l3.324,4.373c0.949,1.221,1.503,1.902,1.661,2.043
			c0.079,0.061,0.158,0.105,0.237,0.131c0.131,0.045,0.422,0.066,0.869,0.066v0.844c-0.663-0.062-1.243-0.094-1.74-0.094
			c-0.516,0-1.148,0.031-1.898,0.094c-0.574-0.658-1.535-1.945-2.886-3.859c-0.75-1.062-1.411-1.95-1.984-2.662
			c-0.927-1.176-1.81-2.243-2.647-3.201l0.133-0.395c0.456,0.025,0.803,0.039,1.04,0.039c1.599,0,2.811-0.379,3.636-1.136
			c0.826-0.757,1.238-1.756,1.238-2.997c0-1.083-0.355-1.943-1.066-2.582c-0.711-0.638-1.786-0.957-3.227-0.957
			c-0.904,0-1.791,0.136-2.66,0.406c-0.035,0.475-0.062,0.919-0.079,1.332c-0.009,0.123-0.04,1.402-0.093,3.838v5.856
			c0,1.196,0.021,2.36,0.062,3.495c0.018,0.836,0.077,1.332,0.178,1.49s0.266,0.275,0.493,0.35c0.228,0.075,0.858,0.121,1.892,0.139
			v0.844c-1.248-0.062-2.396-0.094-3.442-0.094c-0.844,0-2.265,0.031-4.261,0.094v-0.844c1.034-0.018,1.665-0.063,1.893-0.139
			c0.228-0.074,0.386-0.178,0.474-0.31c0.104-0.176,0.171-0.603,0.196-1.278c0.011-0.186,0.031-1.434,0.062-3.745v-6.104
			c0-1.195-0.016-2.364-0.047-3.507c-0.025-0.836-0.09-1.33-0.19-1.483c-0.101-0.154-0.263-0.269-0.486-0.343
			C117.963,126.482,117.329,126.437,116.285,126.419z"/>
	</g>
	<g>
		<path fill="#929497" d="M144.789,143.466v0.844c-1.869-0.062-3.097-0.094-3.685-0.094l-4.065,0.094v-0.844
			c1.033-0.018,1.664-0.063,1.893-0.139c0.228-0.074,0.385-0.178,0.473-0.31c0.105-0.176,0.171-0.603,0.197-1.278
			c0.01-0.186,0.031-1.434,0.062-3.745v-6.104c0-1.195-0.016-2.364-0.047-3.507c-0.026-0.836-0.09-1.33-0.191-1.483
			c-0.101-0.154-0.263-0.269-0.486-0.343c-0.224-0.075-0.857-0.121-1.9-0.139v-0.844c1.676,0.062,2.969,0.094,3.882,0.094
			c0.877,0,2.166-0.031,3.868-0.094v0.844c-1.043,0.018-1.676,0.063-1.898,0.139c-0.224,0.074-0.379,0.178-0.467,0.31
			c-0.105,0.176-0.171,0.603-0.197,1.278c-0.011,0.176-0.031,1.425-0.062,3.745v6.104c0,1.196,0.014,2.36,0.039,3.494
			c0.027,0.835,0.091,1.331,0.191,1.489c0.102,0.158,0.264,0.275,0.488,0.35C143.107,143.402,143.742,143.448,144.789,143.466z"/>
		<path fill="#929497" d="M147.973,144.31v-0.891c0.696-0.009,1.13-0.037,1.302-0.086c0.171-0.048,0.33-0.141,0.476-0.276
			c0.145-0.137,0.354-0.49,0.627-1.062c0.158-0.325,0.73-1.561,1.717-3.706l3.303-7.439c0.36-0.818,1.131-2.639,2.311-5.461h0.844
			l5.636,13.23c0.915,2.145,1.522,3.49,1.821,4.035c0.167,0.309,0.35,0.511,0.548,0.607s0.645,0.149,1.339,0.158v0.891
			c-1.372-0.083-2.332-0.125-2.877-0.125l-4.248,0.125v-0.891c0.984-0.018,1.582-0.049,1.793-0.092
			c0.211-0.045,0.354-0.107,0.429-0.191c0.075-0.084,0.112-0.187,0.112-0.31c0-0.193-0.062-0.443-0.185-0.751l-1.617-4.031h-7.642
			l-1.435,3.386c-0.255,0.606-0.383,1.05-0.383,1.331c0,0.123,0.035,0.224,0.105,0.303c0.097,0.114,0.247,0.193,0.449,0.236
			c0.325,0.07,0.896,0.11,1.714,0.119v0.891c-1.486-0.083-2.599-0.125-3.338-0.125C149.919,144.185,148.985,144.227,147.973,144.31z
			 M154.116,136.919h6.649l-3.283-7.941L154.116,136.919z"/>
	</g>
	<g>
		<path fill="#929497" d="M171.484,144.31v-0.844c0.924-0.009,1.531-0.079,1.822-0.211c0.123-0.053,0.211-0.136,0.264-0.25
			c0.088-0.176,0.148-0.637,0.182-1.383c0.051-1.16,0.076-2.161,0.076-3.004v-6.732c0-1.194-0.016-2.362-0.047-3.504
			c-0.027-0.834-0.09-1.328-0.191-1.482c-0.102-0.153-0.264-0.268-0.486-0.342c-0.225-0.075-0.857-0.121-1.9-0.139v-0.844
			l3.758,0.079l3.982-0.065c1.906-0.03,3.291-0.045,4.152-0.045c0.871,0,1.693,0.05,2.467,0.15c-0.143,0.5-0.24,0.934-0.293,1.302
			c-0.018,0.079-0.098,0.991-0.238,2.735h-0.828c0.008-0.893-0.049-1.706-0.172-2.44c-0.484-0.201-1.016-0.337-1.596-0.407
			c-0.985-0.122-1.971-0.184-2.955-0.184c-0.211,0-0.682,0.018-1.412,0.051c-0.729,0.035-1.252,0.064-1.568,0.09
			c-0.033,0.973-0.059,1.883-0.076,2.732l-0.049,4.439c1.025,0.062,1.969,0.094,2.828,0.094c1.043,0,1.934-0.049,2.67-0.145
			c0.281-0.035,0.461-0.105,0.54-0.211s0.149-0.467,0.21-1.082l0.08-0.922h0.797v0.25l-0.062,2.743l0.062,3.073h-0.922l-0.04-0.896
			c-0.018-0.65-0.077-1.055-0.178-1.213s-0.292-0.269-0.573-0.33c-0.5-0.105-1.471-0.158-2.91-0.158
			c-0.588,0-1.422,0.021-2.502,0.062c-0.045,0.881-0.066,2.19-0.066,3.926c0,1.631,0.021,2.869,0.066,3.715
			c1.262,0.094,2.678,0.141,4.248,0.141c1.113,0,1.906-0.035,2.38-0.105s0.911-0.189,1.315-0.357
			c0.105-0.272,0.21-0.643,0.315-1.109c0.192-0.785,0.319-1.375,0.382-1.771h0.891c-0.23,1.777-0.344,3.25-0.344,4.42
			c-0.756,0.116-1.674,0.174-2.756,0.174l-7.869-0.094C174.823,144.216,173.672,144.247,171.484,144.31z"/>
	</g>
</g>
</svg>
